opsz144_wdth50.ufo
<glyph name="zero" format="2">
	<unicode hex="0030"/>
	<advance width="1173"/>
	<outline>
		<contour>
			<point x="90.0216613446" y="901.2458496094" type="qcurve" smooth="yes"/>
			<point x="174.856561247" y="1222.3562011719"/>
			<point x="545.8009033203" y="1554.0068969727"/>
			<point x="771.451171875" y="1530.0004882812" type="qcurve" smooth="yes"/>
			<point x="979.9396362305" y="1504.9940795898"/>
			<point x="1155.5639587079" y="1016.9954223633"/>
			<point x="1080.735467497" y="704.2827758789" type="qcurve" smooth="yes"/>
			<point x="992.4888244306" y="335.090637207"/>
			<point x="607.4553222656" y="-43.8555297852"/>
			<point x="378.0914306641" y="-20" type="qcurve" smooth="yes"/>
			<point x="168.1810913086" y="4.8555297852"/>
			<point x="-12.6405701007" y="503.4117431641"/>
		</contour>
		<contour>
			<point x="269.0274658203" y="881.7651367188" type="qcurve" smooth="yes"/>
			<point x="201.0678710938" y="584.3702392578"/>
			<point x="275.8070068359" y="108.998046875"/>
			<point x="425.7420654297" y="90.998046875" type="qcurve" smooth="yes"/>
			<point x="582.3106689453" y="70.998046875"/>
			<point x="828.7415771484" y="427.4938354492"/>
			<point x="898.7813720703" y="729.6599121094" type="qcurve" smooth="yes"/>
			<point x="959.1979370117" y="986.4537353516"/>
			<point x="867.0091552734" y="1403.8103027344"/>
			<point x="722.1075439453" y="1420.8103027344" type="qcurve" smooth="yes"/>
			<point x="563.6722412109" y="1437.8103027344"/>
			<point x="335.6441650391" y="1170.9312133789"/>
		</contour>
	</outline>
</glyph>
<glyph name="one" format="2">
	<unicode hex="0031"/>
	<advance width="719"/>
	<outline>
		<contour>
			<point x="178.2585449219" y="-15.9616699219" type="line"/>
			<point x="205.2108764648" y="17.8804931641"/>
			<point x="234.9965209961" y="106.6801757812"/>
			<point x="264.0451049805" y="271.0891113281" type="qcurve" smooth="yes"/>
			<point x="450.1058959961" y="1094.5267333984" type="line"/>
			<point x="497.9589233398" y="1335.8281860352" type="line"/>
			<point x="91.0552978516" y="1102.1979980469" type="line"/>
			<point x="49.2867431641" y="1202.3115234375" type="line"/>
			<point x="695.2908935547" y="1550.8061523438" type="line"/>
			<point x="740.8284912109" y="1507.7683105469" type="line"/>
			<point x="716.3051147461" y="1476.0469970703"/>
			<point x="686.986328125" y="1364.7479858398"/>
			<point x="675.2899169922" y="1316.2549438477" type="qcurve" smooth="yes"/>
			<point x="538.3170166016" y="725.4658203125" type="line"/>
			<point x="418.3246459961" y="117.3886108398" type="line"/>
			<point x="242.2958984375" y="-45.1149902344" type="line"/>
		</contour>
	</outline>
</glyph>
<glyph name="two" format="2">
	<unicode hex="0032"/>
	<advance width="1047"/>
	<outline>
		<contour>
			<point x="-110.0269165039" y="12.5830078125" type="qcurve"/>
			<point x="-140.6298217773" y="49.9224853516" type="line"/>
			<point x="12.1327514648" y="180.3992919922" type="line" smooth="yes"/>
			<point x="445.1393432617" y="543.0634155273"/>
			<point x="764.9771728516" y="978.3203125"/>
			<point x="763.4149780273" y="1198.1623535156" type="qcurve" smooth="yes"/>
			<point x="763.0221557617" y="1301.9312744141"/>
			<point x="643.3563842773" y="1372.8255615234"/>
			<point x="502.080871582" y="1372.8255615234" type="qcurve" smooth="yes"/>
			<point x="387.6784057617" y="1372.8255615234"/>
			<point x="216.7035522461" y="1294.6068115234"/>
			<point x="148.2510375977" y="1237.5052490234" type="qcurve"/>
			<point x="98.235534668" y="1295.3056640625" type="line"/>
			<point x="173.4485473633" y="1396.5631103516"/>
			<point x="403.733581543" y="1537.2434082031"/>
			<point x="577.7367553711" y="1537.2434082031" type="qcurve" smooth="yes"/>
			<point x="761.6503295898" y="1537.2434082031"/>
			<point x="955.0424194336" y="1375.2312011719"/>
			<point x="961.4108276367" y="1234.9720458984" type="qcurve" smooth="yes"/>
			<point x="971.6002807617" y="998.2673339844"/>
			<point x="387.0061035156" y="366.2166748047"/>
			<point x="219.7055053711" y="269.2324829102" type="qcurve"/>
			<point x="215.8319091797" y="270.5801391602" type="line"/>
			<point x="246.6550292969" y="253.4489135742"/>
			<point x="263.7168579102" y="251.8844604492"/>
			<point x="301.1800537109" y="256.5914306641" type="qcurve"/>
			<point x="440.7291259766" y="216.2584838867"/>
			<point x="578.1393432617" y="182.9904785156"/>
			<point x="701.7225952148" y="159.1377563477" type="qcurve"/>
			<point x="807.6165161133" y="358.4008178711" type="line"/>
			<point x="890.1433105469" y="336.6860351562" type="line"/>
			<point x="749.9553833008" y="-29.5601806641" type="line"/>
			<point x="497.8235473633" y="40.2874755859"/>
			<point x="282.6868286133" y="101.8334350586"/>
			<point x="174.8231811523" y="105.6275634766" type="qcurve" smooth="yes"/>
			<point x="88.82421875" y="108.4459838867"/>
			<point x="-47.4423217773" y="59.1174316406"/>
		</contour>
	</outline>
</glyph>
<glyph name="three" format="2">
	<unicode hex="0033"/>
	<advance width="978"/>
	<outline>
		<contour>
			<point x="-62.7004394531" y="207.3295898438" type="qcurve"/>
			<point x="-60.7004394531" y="246.5289916992"/>
			<point x="3.6088867188" y="306.2271118164"/>
			<point x="46.0180664062" y="304.0723876953" type="qcurve"/>
			<point x="66.5628662109" y="302.4790649414" type="line"/>
			<point x="63.0283203125" y="259.3576049805"/>
			<point x="62.3478393555" y="224.4790649414"/>
			<point x="63.9247436523" y="209.3090209961" type="qcurve" smooth="yes"/>
			<point x="71.3493041992" y="160.3321533203"/>
			<point x="198.8400878906" y="86.9699707031"/>
			<point x="295.9835205078" y="86.9699707031" type="qcurve" smooth="yes"/>
			<point x="440.4564819336" y="86.9699707031"/>
			<point x="641.5198974609" y="257.2056884766"/>
			<point x="656.9380493164" y="440.1508178711" type="qcurve" smooth="yes"/>
			<point x="671.0953369141" y="609.6032714844"/>
			<point x="527.8935546875" y="793.0690307617"/>
			<point x="363.1423950195" y="796.671875" type="qcurve" smooth="yes"/>
			<point x="250.8928222656" y="801.5310058594" type="line"/>
			<point x="257.0834960938" y="877.5921630859" type="line"/>
			<point x="331.7255859375" y="873.8857421875" type="line" smooth="yes"/>
			<point x="513.9641113281" y="864.0386962891"/>
			<point x="692.8287353516" y="1047.7916259766"/>
			<point x="703.2532958984" y="1192.3411254883" type="qcurve" smooth="yes"/>
			<point x="708.8287353516" y="1266.4225463867"/>
			<point x="600.0115356445" y="1383.5467529297"/>
			<point x="488.6633300781" y="1383.5467529297" type="qcurve" smooth="yes"/>
			<point x="409.5822143555" y="1383.5467529297"/>
			<point x="237.4814453125" y="1290.1005859375"/>
			<point x="201.623046875" y="1242.7365722656" type="qcurve"/>
			<point x="151.8370361328" y="1290.109375" type="line"/>
			<point x="201.1370849609" y="1378.6861572266"/>
			<point x="396.1202392578" y="1527.3226928711"/>
			<point x="564.4326171875" y="1527.3226928711" type="qcurve" smooth="yes"/>
			<point x="737.3601074219" y="1527.3226928711"/>
			<point x="910.3580322266" y="1381.4100952148"/>
			<point x="901.3580322266" y="1246.760925293" type="qcurve" smooth="yes"/>
			<point x="893.3580322266" y="1120.6935424805"/>
			<point x="695.4011230469" y="906.6225585938"/>
			<point x="502.0410766602" y="856.0216064453" type="qcurve"/>
			<point x="499.6165161133" y="848.9244384766" type="line"/>
			<point x="662.455871582" y="825.8004760742"/>
			<point x="863.9544677734" y="611.110534668"/>
			<point x="855.9544677734" y="465.7900390625" type="qcurve" smooth="yes"/>
			<point x="845.2281494141" y="283.4620361328"/>
			<point x="480.743347168" y="9"/>
			<point x="262.4756469727" y="9" type="qcurve" smooth="yes"/>
			<point x="102.0786132812" y="9"/>
			<point x="-64.7004394531" y="128.9575805664"/>
		</contour>
	</outline>
</glyph>
<glyph name="four" format="2">
	<unicode hex="0034"/>
	<advance width="1136"/>
	<outline>
		<contour>
			<point x="-7.6234130859" y="455.7985839844" type="line"/>
			<point x="13" y="539" type="line"/>
			<point x="968.7897949219" y="1551.6118164062" type="line"/>
			<point x="996.7999267578" y="1530.1067504883" type="line"/>
			<point x="980.9009399414" y="1484.9494628906" type="line"/>
			<point x="823.5306396484" y="530.3361816406" type="line"/>
			<point x="818.5306396484" y="503.3361816406" type="line"/>
			<point x="771.4247436523" y="173.8858642578" type="line"/>
			<point x="768.809753418" y="54.8874511719" type="line"/>
			<point x="571.7894897461" y="-9.4040527344" type="line"/>
			<point x="551.6322021484" y="19.9105224609" type="line"/>
			<point x="640.9490356445" y="505.3361816406" type="line"/>
			<point x="648.9490356445" y="530.3361816406" type="line"/>
			<point x="765.5318603516" y="1213.075378418" type="line"/>
			<point x="168" y="559" type="line"/>
			<point x="154.7357177734" y="586.2585449219" type="line"/>
			<point x="739.8704833984" y="582.7199707031" type="line"/>
			<point x="1045.9124755859" y="582.1430664062" type="line"/>
			<point x="1020.2589111328" y="454.7985839844" type="line"/>
			<point x="720.2169189453" y="445.3371582031" type="line"/>
		</contour>
	</outline>
</glyph>
<glyph name="five" format="2">
	<unicode hex="0035"/>
	<advance width="976"/>
	<outline>
		<contour>
			<point x="-114.7733154297" y="201.7449951172" type="qcurve" smooth="yes"/>
			<point x="-114.7733154297" y="251.9865112305"/>
			<point x="-65.657043457" y="313.6168823242"/>
			<point x="-20.4486083984" y="312.6859130859" type="qcurve"/>
			<point x="-4.1903076172" y="310.9595947266" type="line"/>
			<point x="-2.9320068359" y="226.0583496094" type="line" smooth="yes"/>
			<point x="10.7520141602" y="166.5626831055"/>
			<point x="138.8353881836" y="83.9111328125"/>
			<point x="283.6021728516" y="83.9111328125" type="qcurve" smooth="yes"/>
			<point x="482.1870727539" y="83.9111328125"/>
			<point x="693.1420288086" y="309.5442504883"/>
			<point x="697.7411499023" y="541.0568847656" type="qcurve" smooth="yes"/>
			<point x="701.764831543" y="734.6314697266"/>
			<point x="431.5112915039" y="882.2733154297"/>
			<point x="236.8400878906" y="827.1024169922" type="qcurve" smooth="yes"/>
			<point x="133.7836914062" y="797.4814453125" type="line"/>
			<point x="93.6611328125" y="855.1215820312" type="line"/>
			<point x="222.1994018555" y="1486.0759887695" type="line"/>
			<point x="257.1853027344" y="1523.9276123047" type="line"/>
			<point x="942.1044921875" y="1523.9276123047" type="line"/>
			<point x="916.5431518555" y="1340.3460083008" type="line"/>
			<point x="287.7675170898" y="1340.3460083008" type="line"/>
			<point x="276.5092163086" y="1328.0749511719" type="line"/>
			<point x="257.4867553711" y="1222.6295166016"/>
			<point x="195.4899291992" y="952.7972412109"/>
			<point x="168.8977661133" y="876.835144043" type="qcurve"/>
			<point x="386.3550415039" y="972.3640136719" type="line"/>
			<point x="623.6731567383" y="993.2132568359"/>
			<point x="881.7919311523" y="770.5040893555"/>
			<point x="877.3112182617" y="545.3524169922" type="qcurve" smooth="yes"/>
			<point x="871.5287475586" y="295.8120117188"/>
			<point x="496.1288452148" y="0"/>
			<point x="250.7174072266" y="0" type="qcurve" smooth="yes"/>
			<point x="42.1976928711" y="0"/>
			<point x="-114.7733154297" y="121.5789794922"/>
		</contour>
	</outline>
</glyph>
<glyph name="six" format="2">
	<unicode hex="0036"/>
	<advance width="1094"/>
	<outline>
		<contour>
			<point x="-0.2736816406" y="478.3974609375" type="qcurve" smooth="yes"/>
			<point x="38.3195800781" y="868.0933837891"/>
			<point x="652.8906860352" y="1485.8767700195"/>
			<point x="1040.939453125" y="1575.9351196289" type="qcurve"/>
			<point x="1051.3636474609" y="1494.6636962891" type="line"/>
			<point x="781.1632080078" y="1410.9662475586"/>
			<point x="219.5098266602" y="864.0949707031"/>
			<point x="183.9434814453" y="438.3732299805" type="qcurve" smooth="yes"/>
			<point x="168.3693847656" y="244.5948486328"/>
			<point x="323.1718139648" y="94.3740234375"/>
			<point x="457.2893066406" y="94.1067504883" type="qcurve" smooth="yes"/>
			<point x="605.0739135742" y="93.2576293945"/>
			<point x="805.5309448242" y="341.6382446289"/>
			<point x="813.9392700195" y="568.2395629883" type="qcurve" smooth="yes"/>
			<point x="820.4007568359" y="649.7616577148"/>
			<point x="684.8292236328" y="779.6934204102"/>
			<point x="560.6380615234" y="780.117980957" type="qcurve" smooth="yes"/>
			<point x="517.2547607422" y="780.5425415039"/>
			<point x="453.9750366211" y="782.6877441406"/>
			<point x="415.63671875" y="774.9223632812" type="qcurve"/>
			<point x="400.9358520508" y="826.6762695312" type="line"/>
			<point x="450.4487304688" y="855.6838378906"/>
			<point x="616.0842895508" y="919.1403198242"/>
			<point x="643.887512207" y="918.7157592773" type="qcurve" smooth="yes"/>
			<point x="803.1643676758" y="917.8666381836"/>
			<point x="1008.3930053711" y="703.2656860352"/>
			<point x="996.129699707" y="560.153503418" type="qcurve" smooth="yes"/>
			<point x="978.6055297852" y="292.4313354492"/>
			<point x="640.1338500977" y="-4.2672729492"/>
			<point x="403.6639404297" y="-3.8427124023" type="qcurve" smooth="yes"/>
			<point x="223.2208251953" y="-3.5754394531"/>
			<point x="-24.1943359375" y="238.4173583984"/>
		</contour>
	</outline>
</glyph>
<glyph name="seven" format="2">
	<unicode hex="0037"/>
	<advance width="1020"/>
	<outline>
		<contour>
			<point x="24.5862426758" y="1133.9415283203" type="line"/>
			<point x="164.0471191406" y="1523.9761962891" type="line"/>
			<point x="1085.7800292969" y="1523.9761962891" type="line"/>
			<point x="1102.0964355469" y="1470.0921630859" type="line"/>
			<point x="829.8237304688" y="1197.5474243164"/>
			<point x="325.5905151367" y="433.0858764648"/>
			<point x="212.7496337891" y="15.6392822266" type="qcurve"/>
			<point x="88.8151245117" y="-21" type="line"/>
			<point x="65.9072875977" y="20.8528442383" type="line"/>
			<point x="224.9701538086" y="444.4620361328"/>
			<point x="603.7992553711" y="1026.5894775391"/>
			<point x="851.6936035156" y="1316.6528930664" type="qcurve"/>
			<point x="838.419921875" y="1330.6528930664" type="line"/>
			<point x="243.0052490234" y="1330.6528930664" type="line"/>
			<point x="125.5834350586" y="1134.7764892578" type="line"/>
		</contour>
	</outline>
</glyph>
<glyph name="eight" format="2">
	<unicode hex="0038"/>
	<advance width="1044"/>
	<outline>
		<contour>
			<point x="413.654296875" y="848.2943725586" type="qcurve"/>
			<point x="482.9742431641" y="804.9735717773" type="line"/>
			<point x="300.3355102539" y="722.4468994141"/>
			<point x="158.0386962891" y="470.7001953125"/>
			<point x="162.2600097656" y="344.4013671875" type="qcurve" smooth="yes"/>
			<point x="165.2076416016" y="229.7991943359"/>
			<point x="277.6956787109" y="91.37109375"/>
			<point x="434.6514892578" y="91.7956542969" type="qcurve" smooth="yes"/>
			<point x="594.9281005859" y="92.6447753906"/>
			<point x="791.1166381836" y="241.1496582031"/>
			<point x="788.895324707" y="377.7078857422" type="qcurve" smooth="yes"/>
			<point x="786.6740112305" y="486.8218994141"/>
			<point x="605.7455444336" y="696.9084472656"/>
			<point x="511.2718505859" y="768.2318115234" type="qcurve" smooth="yes"/>
			<point x="398.4194946289" y="856.5883789062"/>
			<point x="211.2724609375" y="1038.4587402344"/>
			<point x="202.78125" y="1162.8648681641" type="qcurve" smooth="yes"/>
			<point x="195.5637207031" y="1330.6137695312"/>
			<point x="421.24609375" y="1557.7524414062"/>
			<point x="653.5856933594" y="1558.6015625" type="qcurve" smooth="yes"/>
			<point x="799.5065917969" y="1559.4506835938"/>
			<point x="1005.7073974609" y="1415.1990966797"/>
			<point x="1010.8021240234" y="1298.6687011719" type="qcurve" smooth="yes"/>
			<point x="1017.6436767578" y="1175.5875244141"/>
			<point x="816.3891601562" y="961.6596069336"/>
			<point x="603.1458740234" y="859.479675293" type="qcurve"/>
			<point x="542.6865234375" y="903.9411621094" type="line"/>
			<point x="712.0350341797" y="999.7602539062"/>
			<point x="804.484375" y="1192.0574951172"/>
			<point x="801.5124511719" y="1268.8731689453" type="qcurve" smooth="yes"/>
			<point x="799.4139404297" y="1344.5791015625"/>
			<point x="713.5889892578" y="1465.8322753906"/>
			<point x="619.1066894531" y="1465.8322753906" type="qcurve" smooth="yes"/>
			<point x="493.7683105469" y="1465.4077148438"/>
			<point x="365.6674194336" y="1328.0394897461"/>
			<point x="368.2147827148" y="1219.6843261719" type="qcurve" smooth="yes"/>
			<point x="371.186706543" y="1139.8034667969"/>
			<point x="504.9869995117" y="992.2105102539"/>
			<point x="628.6347045898" y="894.6506958008" type="qcurve" smooth="yes"/>
			<point x="743.075378418" y="807.8862915039"/>
			<point x="946.4757080078" y="594.154296875"/>
			<point x="952.3709716797" y="425.0190429688" type="qcurve" smooth="yes"/>
			<point x="961.2381591797" y="223.4390258789"/>
			<point x="664.4213867188" y="5.8491210938"/>
			<point x="415.0712890625" y="5" type="qcurve" smooth="yes"/>
			<point x="188.8912353516" y="4.5754394531"/>
			<point x="-56.4206542969" y="188.5684814453"/>
			<point x="-63.6138916016" y="342.9248046875" type="qcurve" smooth="yes"/>
			<point x="-71.65625" y="514.2222900391"/>
			<point x="191.0749511719" y="759.8215332031"/>
		</contour>
	</outline>
</glyph>
<glyph name="nine" format="2">
	<unicode hex="0039"/>
	<advance width="1124"/>
	<outline>
		<contour>
			<point x="46.5391235352" y="-25.6841430664" type="qcurve"/>
			<point x="36.5867919922" y="53.5872802734" type="line"/>
			<point x="382.4380493164" y="174.2847290039"/>
			<point x="855.969909668" y="672.0390014648"/>
			<point x="887.2728271484" y="1091.9916992188" type="qcurve" smooth="yes"/>
			<point x="899.7906494141" y="1229.1217651367"/>
			<point x="778.2669677734" y="1454.6751098633"/>
			<point x="623.9594726562" y="1455.0996704102" type="qcurve" smooth="yes"/>
			<point x="476.1748657227" y="1455.9487915039"/>
			<point x="278.5180053711" y="1220.2593994141"/>
			<point x="269.537902832" y="1031.2826538086" type="qcurve" smooth="yes"/>
			<point x="262.2905273438" y="920.760559082"/>
			<point x="384.8527832031" y="787.0717163086"/>
			<point x="509.8480834961" y="786.6471557617" type="qcurve" smooth="yes"/>
			<point x="551.8068237305" y="786.2225952148"/>
			<point x="623.6683959961" y="791.9201049805"/>
			<point x="660.1640014648" y="817.6854858398" type="qcurve"/>
			<point x="671.3930053711" y="765.9315795898" type="line"/>
			<point x="633.7228393555" y="716.9240112305"/>
			<point x="517.7727050781" y="651.6248168945"/>
			<point x="442.9694824219" y="652.0493774414" type="qcurve" smooth="yes"/>
			<point x="270.2680664062" y="652.8984985352"/>
			<point x="75.5650024414" y="865.2565307617"/>
			<point x="88.3474731445" y="1028.3687133789" type="qcurve" smooth="yes"/>
			<point x="106.5545043945" y="1276.4451293945"/>
			<point x="448.9136352539" y="1547.4736938477"/>
			<point x="674.958984375" y="1547.0491333008" type="qcurve" smooth="yes"/>
			<point x="863.1792602539" y="1546.6245727539"/>
			<point x="1104.6689453125" y="1265.5933837891"/>
			<point x="1082.4899902344" y="1051.9674682617" type="qcurve" smooth="yes"/>
			<point x="1047.5847167969" y="662.2715454102"/>
			<point x="428.6665649414" y="65.0033569336"/>
		</contour>
	</outline>
</glyph>
<glyph name="B" format="2">
	<unicode hex="0042"/>
	<advance width="1223"/>
	<outline>
		<contour>
			<point x="-56.8180541992" y="0" type="line"/>
			<point x="-51.6182861328" y="100.9987792969" type="line"/>
			<point x="139.1943969727" y="109.9987792969" type="line"/>
			<point x="291.9946289062" y="811" type="line"/>
			<point x="409.3948974609" y="1373.8013916016" type="line"/>
			<point x="227.369140625" y="1383.8013916016" type="line"/>
			<point x="238.7473754883" y="1500" type="line"/>
			<point x="774.3148193359" y="1500" type="line" smooth="yes"/>
			<point x="985.3098754883" y="1500"/>
			<point x="1156.6967773438" y="1316"/>
			<point x="1138.3990478516" y="1175" type="qcurve" smooth="yes"/>
			<point x="1119.4390869141" y="1032"/>
			<point x="918.3106689453" y="856"/>
			<point x="789.0173950195" y="828" type="qcurve"/>
			<point x="788.3418579102" y="821" type="line"/>
			<point x="933.990234375" y="787"/>
			<point x="1084.6522827148" y="569"/>
			<point x="1050.9100952148" y="404" type="qcurve" smooth="yes"/>
			<point x="1012.1679077148" y="214"/>
			<point x="706.7553100586" y="0"/>
			<point x="471.4977416992" y="0" type="qcurve" smooth="yes"/>
		</contour>
		<contour>
			<point x="307.1911010742" y="121.3327026367" type="line"/>
			<point x="342.8491210938" y="104.2215576172" type="line"/>
			<point x="407.1520996094" y="104.2215576172" type="line" smooth="yes"/>
			<point x="630.9842529297" y="104.2215576172"/>
			<point x="837.8473510742" y="204"/>
			<point x="878.8739624023" y="416" type="qcurve" smooth="yes"/>
			<point x="912.9005737305" y="596"/>
			<point x="779.4025268555" y="758.1115112305"/>
			<point x="607.126159668" y="758.1115112305" type="qcurve" smooth="yes"/>
			<point x="442.698059082" y="758.1115112305" type="line"/>
			<point x="440.2536010742" y="748.2225952148" type="line"/>
		</contour>
		<contour>
			<point x="465.3111572266" y="875.888671875" type="line"/>
			<point x="462.6444702148" y="869.3330078125" type="line"/>
			<point x="579.3967895508" y="869.3330078125" type="line" smooth="yes"/>
			<point x="747.024230957" y="869.3330078125"/>
			<point x="951.1718139648" y="1016"/>
			<point x="970.5628051758" y="1178" type="qcurve" smooth="yes"/>
			<point x="989.616027832" y="1334"/>
			<point x="833.4999389648" y="1379.1118774414"/>
			<point x="677.8991088867" y="1379.1118774414" type="qcurve" smooth="yes"/>
			<point x="600.0004272461" y="1379.1118774414" type="line"/>
			<point x="573.8580322266" y="1369.0007324219" type="line"/>
		</contour>
	</outline>
	<anchor name="bottom" x="630" y="0"/>
	<anchor name="top" x="630" y="1500"/>
</glyph>
<glyph name="C" format="2">
	<unicode hex="0043"/>
	<advance width="1296"/>
	<outline>
		<contour>
			<point x="53.6374861816" y="757" type="qcurve" smooth="yes"/>
			<point x="145.6374861816" y="1154"/>
			<point x="719.7174179975" y="1567.3086547852"/>
			<point x="1010.7401230756" y="1517" type="qcurve" smooth="yes"/>
			<point x="1101.0846054975" y="1502.0219726562"/>
			<point x="1222.2507324219" y="1436.9724731445"/>
			<point x="1260.6350097656" y="1406.7669677734" type="qcurve"/>
			<point x="1310.5726318359" y="1490.8262939453" type="line"/>
			<point x="1358.1690673828" y="1490.8262939453" type="line"/>
			<point x="1265.623046875" y="961.6893920898" type="line"/>
			<point x="1160.8662109375" y="961.6893920898" type="line"/>
			<point x="1170.0655517578" y="1089.334777832" type="line"/>
			<point x="1154.2171020508" y="1227.9281005859"/>
			<point x="1073.0743408203" y="1361.6505126953"/>
			<point x="999.9432373047" y="1376.3342285156" type="qcurve" smooth="yes"/>
			<point x="734.2914428711" y="1430.8188476562"/>
			<point x="322.895847998" y="1192"/>
			<point x="235.5536849121" y="771" type="qcurve" smooth="yes"/>
			<point x="162.6586043457" y="422"/>
			<point x="382.0093015826" y="148.1857299805"/>
			<point x="577.0541013873" y="123.2769165039" type="qcurve" smooth="yes"/>
			<point x="826.6501096881" y="86.8945922852"/>
			<point x="1122.1460311035" y="267.6105957031"/>
			<point x="1156.9382063965" y="401.2774658203" type="qcurve"/>
			<point x="1193.7417342285" y="387.3886108398" type="line"/>
			<point x="1208.4249617676" y="319.0557861328" type="line"/>
			<point x="1151.0337766802" y="138.4826660156"/>
			<point x="764.5628904498" y="-70.5712890625"/>
			<point x="504.4456526855" y="-21.5" type="qcurve" smooth="yes"/>
			<point x="277.8404891113" y="14.4650878906"/>
			<point x="-34.1376603027" y="381"/>
		</contour>
	</outline>
	<anchor name="bottom" x="596" y="0"/>
	<anchor name="top" x="906" y="1500"/>
</glyph>
<glyph name="F" format="2">
	<unicode hex="0046"/>
	<advance width="1056"/>
	<outline>
		<contour>
			<point x="-59.4693603516" y="0" type="line"/>
			<point x="-54.2695922852" y="100.9987792969" type="line"/>
			<point x="132.7236328125" y="108.9987792969" type="line"/>
			<point x="280.7238769531" y="803" type="line"/>
			<point x="403.1241455078" y="1372.8013916016" type="line"/>
			<point x="214.7178344727" y="1383.8013916016" type="line"/>
			<point x="226.4982299805" y="1500" type="line"/>
			<point x="1098.8659057617" y="1500" type="line"/>
			<point x="1049.0939331055" y="1117.7933959961" type="line"/>
			<point x="961.2965698242" y="1117.7933959961" type="line"/>
			<point x="893.2908935547" y="1391.4451293945" type="line"/>
			<point x="600.1028442383" y="1381.4451293945" type="line"/>
			<point x="570.1028442383" y="1370.4451293945" type="line"/>
			<point x="440.8804931641" y="801" type="line"/>
			<point x="297.8802490234" y="118.9987792969" type="line"/>
			<point x="523.1426391602" y="100.9987792969" type="line"/>
			<point x="513.3450317383" y="0" type="line"/>
		</contour>
		<contour>
			<point x="347.8422241211" y="700.2225341797" type="line"/>
			<point x="366.8021240234" y="802.1107788086" type="line"/>
			<point x="650.0681152344" y="808.7774047852" type="line"/>
			<point x="756.095703125" y="965.9153442383" type="line"/>
			<point x="852.0927734375" y="965.9153442383" type="line"/>
			<point x="753.7780151367" y="479.8624267578" type="line"/>
			<point x="662.7809448242" y="479.8624267578" type="line"/>
			<point x="630.9571533203" y="681.0003662109" type="line"/>
		</contour>
	</outline>
	<anchor name="bottom" x="578" y="0"/>
	<anchor name="top" x="622" y="1500"/>
</glyph>
<glyph name="G" format="2">
	<unicode hex="0047"/>
	<advance width="1499"/>
	<outline>
		<contour>
			<point x="52.9171957656" y="748" type="qcurve" smooth="yes"/>
			<point x="129.9171957656" y="1117"/>
			<point x="667.2046713515" y="1493.1207885742"/>
			<point x="947.2038778945" y="1523.5" type="qcurve" smooth="yes"/>
			<point x="1086.2159018203" y="1524.9703369141"/>
			<point x="1280.8258261367" y="1467.3629760742"/>
			<point x="1335.300191371" y="1422.5" type="qcurve" smooth="yes"/>
			<point x="1393.3618751097" y="1497" type="line"/>
			<point x="1459.4464088011" y="1493" type="line"/>
			<point x="1364.9326148558" y="1068.8620605469" type="line"/>
			<point x="1257.1757789183" y="1068.8620605469" type="line"/>
			<point x="1227.1297584105" y="1140.9291992188" type="line"/>
			<point x="1210.8828329726" y="1252.9925537109"/>
			<point x="1041.4250082656" y="1374.1079101562"/>
			<point x="919.188436" y="1385.3897705078" type="qcurve" smooth="yes"/>
			<point x="701.5034384414" y="1414.1990356445"/>
			<point x="313.4180502578" y="1171"/>
			<point x="233.0332846328" y="766" type="qcurve" smooth="yes"/>
			<point x="165.9133505507" y="433.7777709961"/>
			<point x="383.5330404921" y="171.2196655273"/>
			<point x="593.5159506484" y="125.8880004883" type="qcurve" smooth="yes"/>
			<point x="719.7253622695" y="96.7601928711"/>
			<point x="984.1471762343" y="118.7770385742"/>
			<point x="1116.5748495742" y="174.3323974609" type="qcurve"/>
			<point x="1201.1690040159" y="554.4012451172" type="line"/>
			<point x="1021.5929542112" y="567.2012329102" type="line"/>
			<point x="1038.3776832151" y="677" type="line"/>
			<point x="1494.603025012" y="677" type="line"/>
			<point x="1473.4139991331" y="567.4012451172" type="line"/>
			<point x="1348.3655982542" y="555.4012451172" type="line"/>
			<point x="1264.0849586058" y="157.3581542969" type="line"/>
			<point x="1180.381795375" y="141.6790771484" type="line"/>
			<point x="1045.8202719375" y="28.9808959961"/>
			<point x="694.7352499648" y="-49"/>
			<point x="540.1201986953" y="-16" type="qcurve" smooth="yes"/>
			<point x="334.7705282851" y="26.4428100586"/>
			<point x="-21.0828042344" y="405"/>
		</contour>
	</outline>
	<anchor name="bottom" x="667" y="0"/>
	<anchor name="top" x="907" y="1492"/>
</glyph>
<glyph name="K" format="2">
	<unicode hex="004B"/>
	<advance width="1119"/>
	<outline>
		<contour>
			<point x="-52.7964477539" y="0" type="line"/>
			<point x="-49.6181640625" y="100.9987792969" type="line"/>
			<point x="140.1943969727" y="110.9987792969" type="line"/>
			<point x="285.9946289062" y="797" type="line"/>
			<point x="408.3948974609" y="1373.8013916016" type="line"/>
			<point x="227.369140625" y="1383.8013916016" type="line"/>
			<point x="238.7473754883" y="1500" type="line"/>
			<point x="780.0340576172" y="1500" type="line"/>
			<point x="758.6558227539" y="1383.8013916016" type="line"/>
			<point x="577.8713378906" y="1373.8013916016" type="line"/>
			<point x="446.2312011719" y="766" type="line"/>
			<point x="304.7108154297" y="110.9987792969" type="line"/>
			<point x="476.7192993164" y="100.9987792969" type="line"/>
			<point x="468.541015625" y="0" type="line"/>
		</contour>
		<contour>
			<point x="344.3416748047" y="537.3206787109" type="line"/>
			<point x="369.8640136719" y="684.5056152344" type="line"/>
			<point x="1052.4417724609" y="1380.8013916016" type="line"/>
			<point x="848.0017089844" y="1383.8013916016" type="line"/>
			<point x="861.3799438477" y="1500" type="line"/>
			<point x="1427.9515380859" y="1500" type="line"/>
			<point x="1414.5733032227" y="1383.8013916016" type="line"/>
			<point x="1216.4406738281" y="1379.8013916016" type="line"/>
		</contour>
		<contour>
			<point x="557.8568725586" y="812.8974609375" type="line"/>
			<point x="682.4243164062" y="948.5994873047" type="line"/>
			<point x="1001.2958984375" y="111.9987792969" type="line"/>
			<point x="1150.2395629883" y="100.9987792969" type="line"/>
			<point x="1140.0612792969" y="0" type="line"/>
			<point x="635.8674926758" y="0" type="line"/>
			<point x="645.0457763672" y="100.9987792969" type="line"/>
			<point x="823.7395019531" y="111.9987792969" type="line"/>
		</contour>
	</outline>
	<anchor name="bottom" x="607" y="0"/>
	<anchor name="top" x="896" y="1500"/>
	<anchor name="kai_tail" x="1201" y="100"/>
</glyph>
<glyph name="L" format="2">
	<unicode hex="004C"/>
	<advance width="1218"/>
	<outline>
		<contour>
			<point x="-53.9278564453" y="0" type="line"/>
			<point x="-50.5474243164" y="100.9987792969" type="line"/>
			<point x="144.4651489258" y="114.9987792969" type="line"/>
			<point x="293.2653808594" y="786" type="line"/>
			<point x="416.6656494141" y="1379.6013793945" type="line"/>
			<point x="230.0161132812" y="1383.6013793945" type="line"/>
			<point x="241.5943603516" y="1500" type="line"/>
			<point x="813.8724975586" y="1500" type="line"/>
			<point x="792.2942504883" y="1383.6013793945" type="line"/>
			<point x="579.8622436523" y="1379.6013793945" type="line"/>
			<point x="446.4619750977" y="754" type="line"/>
			<point x="311.0173950195" y="117.5548706055" type="line"/>
			<point x="360.0173950195" y="106.5548706055" type="line"/>
			<point x="798.822265625" y="106.5548706055" type="line"/>
			<point x="1008.2829589844" y="427.8179931641" type="line"/>
			<point x="1116.1997070312" y="427.8179931641" type="line"/>
			<point x="986.6282348633" y="0" type="line"/>
		</contour>
	</outline>
	<anchor name="bottom" x="535" y="0"/>
	<anchor name="centerright" x="755" y="750"/>
	<anchor name="top" x="878" y="1500"/>
	<anchor name="topright" x="804" y="1001"/>
	<anchor name="center" x="397" y="750"/>
	<anchor name="liga" x="1104" y="0"/>
</glyph>
<glyph name="M" format="2">
	<unicode hex="004D"/>
	<advance width="1716"/>
	<outline>
		<contour>
			<point x="-79.8702392578" y="0" type="line"/>
			<point x="-72.6919555664" y="100.9987792969" type="line"/>
			<point x="160.9142456055" y="140.9987792969" type="line"/>
			<point x="305.1276245117" y="747" type="line"/>
			<point x="435.3145141602" y="1350.8013916016" type="line"/>
			<point x="220.9147949219" y="1385.8013916016" type="line"/>
			<point x="231.2930297852" y="1500" type="line"/>
			<point x="691.5609130859" y="1500" type="line"/>
			<point x="756.7419433594" y="779.9658813477" type="line"/>
			<point x="787.895324707" y="335.9360961914" type="line"/>
			<point x="797.8150024414" y="214.3560791016" type="line"/>
			<point x="798.8150024414" y="214.3560791016" type="line"/>
			<point x="856.9856567383" y="335.8161621094" type="line"/>
			<point x="1080.6156005859" y="846.7017211914" type="line"/>
			<point x="1350.0439453125" y="1500" type="line"/>
			<point x="1778.1011962891" y="1500" type="line"/>
			<point x="1755.1057739258" y="1384.8013916016" type="line"/>
			<point x="1573.7060546875" y="1362.8013916016" type="line"/>
			<point x="1435.6257324219" y="750" type="line"/>
			<point x="1295.5857543945" y="120.9987792969" type="line"/>
			<point x="1491.0070800781" y="100.9987792969" type="line"/>
			<point x="1482.8287963867" y="0" type="line"/>
			<point x="932.7787475586" y="0" type="line"/>
			<point x="938.95703125" y="100.9987792969" type="line"/>
			<point x="1122.3891601562" y="120.9987792969" type="line"/>
			<point x="1275.5490722656" y="752" type="line"/>
			<point x="1360.6690063477" y="1157.9024047852" type="line"/>
			<point x="1385.3690185547" y="1317.6801757812" type="line"/>
			<point x="1384.3690185547" y="1317.6801757812" type="line"/>
			<point x="1316.0461425781" y="1158.4878540039" type="line"/>
			<point x="1155.0714111328" y="772.1467285156" type="line"/>
			<point x="793.2586669922" y="-6" type="line"/>
			<point x="682.1850585938" y="-6" type="line"/>
			<point x="596.8884887695" y="672.7303466797" type="line"/>
			<point x="550.1534423828" y="1160.4199829102" type="line"/>
			<point x="536.0469970703" y="1311.2222290039" type="line"/>
			<point x="535.0469970703" y="1309.6666870117" type="line"/>
			<point x="508.8335571289" y="1156.6666870117" type="line"/>
			<point x="420.6025390625" y="747" type="line"/>
			<point x="287.580078125" y="140.9987792969" type="line"/>
			<point x="494.6100463867" y="100.9987792969" type="line"/>
			<point x="485.4102783203" y="0" type="line"/>
		</contour>
	</outline>
	<anchor name="bottom" x="768" y="0"/>
	<anchor name="top" x="1048" y="1500"/>
</glyph>
<glyph name="P" format="2">
	<unicode hex="0050"/>
	<advance width="1239"/>
	<outline>
		<contour>
			<point x="-52.1986083984" y="0" type="line"/>
			<point x="-49.020324707" y="100.9987792969" type="line"/>
			<point x="139.1943969727" y="108.9987792969" type="line"/>
			<point x="292.0346069336" y="793" type="line"/>
			<point x="410.1948852539" y="1372.8013916016" type="line"/>
			<point x="230.9885864258" y="1383.8013916016" type="line"/>
			<point x="243.1711425781" y="1500" type="line"/>
			<point x="833.1168212891" y="1500" type="line" smooth="yes"/>
			<point x="1053.7822875977" y="1500"/>
			<point x="1222.7717895508" y="1291"/>
			<point x="1193.6118774414" y="1100" type="qcurve" smooth="yes"/>
			<point x="1163.451965332" y="900"/>
			<point x="854.8966064453" y="611.1117553711"/>
			<point x="621.3107299805" y="611.1117553711" type="qcurve" smooth="yes"/>
			<point x="538.8709716797" y="611.1117553711"/>
			<point x="401.3170166016" y="640.8449707031"/>
			<point x="365.5751342773" y="655.4404296875" type="qcurve"/>
			<point x="396.3927612305" y="761.7196044922" type="line"/>
			<point x="453.1925048828" y="737.2398681641"/>
			<point x="535.1427612305" y="716"/>
			<point x="633.5205078125" y="716" type="qcurve" smooth="yes"/>
			<point x="773.760559082" y="716"/>
			<point x="980.815612793" y="904"/>
			<point x="1011.815612793" y="1106" type="qcurve" smooth="yes"/>
			<point x="1037.815612793" y="1283"/>
			<point x="902.8069458008" y="1387.2229614258"/>
			<point x="739.9531860352" y="1387.2229614258" type="qcurve" smooth="yes"/>
			<point x="600.7515258789" y="1387.2229614258" type="line"/>
			<point x="570.0535888672" y="1363.2894897461" type="line"/>
			<point x="449.1912231445" y="764" type="line"/>
			<point x="303.5510253906" y="117.9987792969" type="line"/>
			<point x="535.3919067383" y="100.9987792969" type="line"/>
			<point x="527.2136230469" y="0" type="line"/>
		</contour>
	</outline>
	<anchor name="bottom" x="634" y="0"/>
	<anchor name="top" x="634" y="1500"/>
</glyph>
<glyph name="Q" format="2">
	<unicode hex="0051"/>
	<advance width="1537"/>
	<outline>
		<contour>
			<point x="78.6927490234" y="817" type="qcurve" smooth="yes"/>
			<point x="149.6927490234" y="1129"/>
			<point x="664.3768920898" y="1572.6044311523"/>
			<point x="976.8767089844" y="1519.5" type="qcurve" smooth="yes"/>
			<point x="1239.0472412109" y="1475.1113891602"/>
			<point x="1501.9724731445" y="1085"/>
			<point x="1426.1973266602" y="738" type="qcurve" smooth="yes"/>
			<point x="1346.4221801758" y="375"/>
			<point x="789.9905395508" y="-62.0297241211"/>
			<point x="533.2841796875" y="-18.5" type="qcurve" smooth="yes"/>
			<point x="286.0375366211" y="24.0241088867"/>
			<point x="-7.3072509766" y="441"/>
		</contour>
		<contour>
			<point x="253.7288818359" y="764" type="qcurve" smooth="yes"/>
			<point x="192.6537475586" y="491.3507080078"/>
			<point x="367.842956543" y="115.0079956055"/>
			<point x="556.4994506836" y="85.1659545898" type="qcurve" smooth="yes"/>
			<point x="782.6119995117" y="50.2050170898"/>
			<point x="1182.6824951172" y="476.790222168"/>
			<point x="1252.0012817383" y="773" type="qcurve" smooth="yes"/>
			<point x="1317.3537597656" y="1051.6156005859"/>
			<point x="1113.5100708008" y="1362.2572021484"/>
			<point x="911.1109008789" y="1397.7230224609" type="qcurve" smooth="yes"/>
			<point x="688.8501586914" y="1437.4364013672"/>
			<point x="320.2174072266" y="1072.0061035156"/>
		</contour>
		<contour>
			<point x="329.2720336914" y="-47.0677490234" type="qcurve"/>
			<point x="337.1971435547" y="-53.7435302734" type="line"/>
			<point x="864.2750854492" y="-257.5567626953" type="line" smooth="yes"/>
			<point x="999.2544555664" y="-310.1577148438"/>
			<point x="1159.8967285156" y="-229.7642211914"/>
			<point x="1243.7437133789" y="-144.1920776367" type="qcurve"/>
			<point x="1313.3840332031" y="-195.7731323242" type="line"/>
			<point x="1235.7399902344" y="-312.2116699219"/>
			<point x="1050.508605957" y="-416.4740600586"/>
			<point x="984.6290893555" y="-458.9937744141" type="qcurve"/>
			<point x="304.7922973633" y="-200.7846069336" type="line"/>
			<point x="253.7039794922" y="-200.291015625"/>
			<point x="128.5712280273" y="-248.317565918"/>
			<point x="44.7045898438" y="-309.3096313477" type="qcurve"/>
			<point x="0.3807373047" y="-241.0360717773" type="line"/>
			<point x="37.7225341797" y="-206.731262207"/>
			<point x="228.6404418945" y="-87.8092041016"/>
		</contour>
		<contour>
			<point x="227.6978759766" y="-48.4688110352" type="line"/>
			<point x="323.5249633789" y="-24.1849365234"/>
			<point x="501.1320800781" y="126.7841186523"/>
			<point x="596.2971801758" y="238.9843139648" type="qcurve" smooth="yes"/>
			<point x="598.0156860352" y="237.2659301758"/>
			<point x="599.5971679688" y="231.0421142578"/>
			<point x="609.6322021484" y="238.3754272461" type="qcurve"/>
			<point x="630.1358032227" y="224.9812011719"/>
			<point x="670.2023925781" y="186.3891601562"/>
			<point x="681.5949707031" y="172.3374633789" type="qcurve"/>
			<point x="675.4061889648" y="164.7560424805"/>
			<point x="668.8155517578" y="163.9874267578"/>
			<point x="667.2766723633" y="166.6206054688" type="qcurve" smooth="yes"/>
			<point x="577.5651855469" y="72.6366577148"/>
			<point x="415.3538818359" y="-69.8380126953"/>
			<point x="319.463684082" y="-91.4541625977" type="qcurve"/>
		</contour>
	</outline>
	<anchor name="bottom" x="832" y="0"/>
	<anchor name="top" x="832" y="1500"/>
</glyph>
<glyph name="S" format="2">
	<unicode hex="0053"/>
	<advance width="925"/>
	<outline>
		<contour>
			<point x="-141.8806762695" y="20.3109130859" type="line"/>
			<point x="-41.2816162109" y="484.3594970703" type="line"/>
			<point x="53.5953369141" y="484.3594970703" type="line"/>
			<point x="48.9371337891" y="354.2215576172" type="line" smooth="yes"/>
			<point x="43.0840454102" y="238.7770996094"/>
			<point x="155.5128173828" y="97.3325195312"/>
			<point x="320.117980957" y="97.3325195312" type="qcurve" smooth="yes"/>
			<point x="401.6081542969" y="97.3325195312"/>
			<point x="602.9776611328" y="173.8884887695"/>
			<point x="624.9776611328" y="283.6663208008" type="qcurve" smooth="yes"/>
			<point x="652.9776611328" y="460.1599731445"/>
			<point x="495.560546875" y="623.3167114258"/>
			<point x="358.6132202148" y="744.8813476562" type="qcurve" smooth="yes"/>
			<point x="261.3501586914" y="822.1836547852"/>
			<point x="42.8818359375" y="1088.3342285156"/>
			<point x="90.8818359375" y="1258.8751220703" type="qcurve" smooth="yes"/>
			<point x="135.8818359375" y="1367.6171875"/>
			<point x="420.2600708008" y="1515"/>
			<point x="540.2388305664" y="1515" type="qcurve" smooth="yes"/>
			<point x="647.9813842773" y="1515"/>
			<point x="782.2933349609" y="1461.1947021484"/>
			<point x="813.8181152344" y="1449.314453125" type="qcurve"/>
			<point x="851.8521728516" y="1490.3685302734" type="line"/>
			<point x="933.6495361328" y="1477.4090576172" type="line"/>
			<point x="838.494934082" y="1041.1224975586" type="line"/>
			<point x="739.6983032227" y="1041.1224975586" type="line"/>
			<point x="735.5344238281" y="1185.7514648438" type="line"/>
			<point x="755.1733398438" y="1267.9519042969"/>
			<point x="622.1330566406" y="1394.5563354492"/>
			<point x="545.6387939453" y="1394.5563354492" type="qcurve" smooth="yes"/>
			<point x="469.890625" y="1394.5563354492"/>
			<point x="309.0177001953" y="1329.5288696289"/>
			<point x="283.6799316406" y="1231.9500732422" type="qcurve" smooth="yes"/>
			<point x="250.3421630859" y="1086.8126220703"/>
			<point x="386.4760742188" y="947.3806152344"/>
			<point x="519.1077880859" y="864.8433227539" type="qcurve" smooth="yes"/>
			<point x="668.9042358398" y="732.8519287109"/>
			<point x="855.8734741211" y="488.127746582"/>
			<point x="823.2112426758" y="300.3192749023" type="qcurve" smooth="yes"/>
			<point x="790.5889892578" y="137.4397583008"/>
			<point x="490.9494628906" y="-20"/>
			<point x="335.5317993164" y="-20" type="qcurve" smooth="yes"/>
			<point x="208.899597168" y="-20"/>
			<point x="65.6266479492" y="71.3295898438"/>
			<point x="22.5108032227" y="92.3212890625" type="qcurve"/>
			<point x="-63.8409423828" y="-1.6485595703" type="line"/>
		</contour>
	</outline>
	<anchor name="bottom" x="399" y="0"/>
	<anchor name="top" x="679" y="1500"/>
</glyph>
<glyph name="U" format="2">
	<unicode hex="0055"/>
	<advance width="1566"/>
	<outline>
		<contour>
			<point x="200.1162109375" y="1385.8013916016" type="line"/>
			<point x="213.6965942383" y="1500" type="line"/>
			<point x="756.6695279208" y="1500" type="line"/>
			<point x="743.0891446201" y="1385.8013916016" type="line"/>
			<point x="543.3005371094" y="1373.8013916016" type="line"/>
			<point x="423.1004638672" y="801" type="line" smooth="yes"/>
			<point x="371.0205078125" y="546"/>
			<point x="305.7227783203" y="222"/>
			<point x="314.0909756747" y="164" type="qcurve" smooth="yes"/>
			<point x="332.8742675781" y="152.461730957"/>
			<point x="497.0300625888" y="142.5677490234"/>
			<point x="625.5201138583" y="142.5677490234" type="qcurve" smooth="yes"/>
			<point x="808.9118374911" y="142.5677490234"/>
			<point x="1051.484835538" y="261.4440307617"/>
			<point x="1086.4760464755" y="406" type="qcurve" smooth="yes"/>
			<point x="1175.4627408115" y="801" type="line"/>
			<point x="1294.4629849521" y="1365.8013916016" type="line"/>
			<point x="1087.0372647372" y="1385.8013916016" type="line"/>
			<point x="1099.9554165927" y="1500" type="line"/>
			<point x="1650.8980435458" y="1500" type="line"/>
			<point x="1637.3176602451" y="1385.8013916016" type="line"/>
			<point x="1412.5288418857" y="1365.8013916016" type="line"/>
			<point x="1291.021944913" y="801" type="line"/>
			<point x="1213.5774869052" y="412" type="line" smooth="yes"/>
			<point x="1173.1330288974" y="207"/>
			<point x="844.2677334872" y="-2"/>
			<point x="564.0013150302" y="-2" type="qcurve" smooth="yes"/>
			<point x="383.1213101474" y="-2"/>
			<point x="174.6955566406" y="109"/>
			<point x="155.9122647372" y="212" type="qcurve" smooth="yes"/>
			<point x="147.5440673828" y="274"/>
			<point x="229.9438476562" y="652.9600219727"/>
			<point x="260.9438476562" y="801" type="qcurve" smooth="yes"/>
			<point x="383.1441040039" y="1373.8013916016" type="line"/>
		</contour>
	</outline>
	<anchor name="bottom" x="588" y="0"/>
	<anchor name="ogonek" x="810" y="0"/>
	<anchor name="top" x="908" y="1500"/>
	<anchor name="topright" x="1561" y="1500"/>
</glyph>
<glyph name="V" format="2">
	<unicode hex="0056"/>
	<advance width="1156"/>
	<outline>
		<contour>
			<point x="34.7835083008" y="1381.8013916016" type="line"/>
			<point x="55.7789306641" y="1500" type="line"/>
			<point x="581.4385375977" y="1500" type="line"/>
			<point x="560.4431152344" y="1381.8013916016" type="line"/>
			<point x="374.9060668945" y="1369.8013916016" type="line"/>
			<point x="421.4080200195" y="847.1765136719" type="line"/>
			<point x="453.49609375" y="423.9659423828" type="line"/>
			<point x="460.529296875" y="273.6559448242" type="line"/>
			<point x="472.529296875" y="272.6559448242" type="line"/>
			<point x="545.1299438477" y="421.6972045898" type="line"/>
			<point x="789.1329956055" y="871.3456420898" type="line"/>
			<point x="1071.8910522461" y="1365.8013916016" type="line"/>
			<point x="822.7344360352" y="1381.8013916016" type="line"/>
			<point x="837.1126708984" y="1500" type="line"/>
			<point x="1451.8483886719" y="1500" type="line"/>
			<point x="1441.2479248047" y="1381.8013916016" type="line"/>
			<point x="1194.6915283203" y="1363.8013916016" type="line"/>
			<point x="875.6174316406" y="798.3771362305" type="line"/>
			<point x="438.5841674805" y="-10" type="line"/>
			<point x="317.6691894531" y="-10" type="line"/>
			<point x="259.764465332" y="752.8753662109" type="line"/>
			<point x="214.6989746094" y="1368.8013916016" type="line"/>
		</contour>
	</outline>
	<anchor name="bottom" x="373" y="0"/>
	<anchor name="top" x="743" y="1500"/>
</glyph>
<glyph name="Y" format="2">
	<unicode hex="0059"/>
	<advance width="1191"/>
	<outline>
		<contour>
			<point x="161.489074707" y="0" type="line"/>
			<point x="170.6673583984" y="102.9987792969" type="line"/>
			<point x="387.0993652344" y="110.9987792969" type="line"/>
			<point x="498.6774291992" y="630.8891601562" type="line"/>
			<point x="350.3305053711" y="998.6127929688" type="line"/>
			<point x="190.5218505859" y="1364.8013916016" type="line"/>
			<point x="5.2085571289" y="1384.8013916016" type="line"/>
			<point x="14.5867919922" y="1500" type="line"/>
			<point x="561.1943359375" y="1500" type="line"/>
			<point x="551.8161010742" y="1384.8013916016" type="line"/>
			<point x="379.8941650391" y="1374.8013916016" type="line"/>
			<point x="504.651184082" y="1071.00390625" type="line"/>
			<point x="632.5780029297" y="782.6628417969" type="line"/>
			<point x="633.5780029297" y="782.6628417969" type="line"/>
			<point x="858.030090332" y="1056.7631835938" type="line"/>
			<point x="1105.5616455078" y="1362.8013916016" type="line"/>
			<point x="875.3792114258" y="1384.8013916016" type="line"/>
			<point x="884.7574462891" y="1500" type="line"/>
			<point x="1478.5331420898" y="1500" type="line"/>
			<point x="1469.1549072266" y="1384.8013916016" type="line"/>
			<point x="1247.8416137695" y="1361.8013916016" type="line"/>
			<point x="942.6665039062" y="990.6383666992" type="line"/>
			<point x="675.4137573242" y="661.5172119141" type="line"/>
			<point x="560.1760253906" y="110.9987792969" type="line"/>
			<point x="756.2061157227" y="102.9987792969" type="line"/>
			<point x="747.0278320312" y="0" type="line"/>
		</contour>
	</outline>
	<anchor name="bottom" x="443" y="0"/>
	<anchor name="top" x="731" y="1500"/>
	<anchor name="tonos" x="-13" y="1500"/>
	<anchor name="center" x="553" y="579"/>
</glyph>
<glyph name="a" format="2">
	<unicode hex="0061"/>
	<advance width="957"/>
	<outline>
		<contour>
			<point x="-54.030902365" y="240" type="qcurve" smooth="yes"/>
			<point x="-73.857867697" y="550.4870605469"/>
			<point x="369.0123105256" y="1015.4877929688"/>
			<point x="568.3275571077" y="1015.4877929688" type="qcurve" smooth="yes"/>
			<point x="621.8813290803" y="1015.4877929688"/>
			<point x="701.179241678" y="982.4877929688"/>
			<point x="720.8652768342" y="953.4877929688" type="qcurve"/>
			<point x="798.9544491975" y="1014.4877929688" type="line"/>
			<point x="824.1033749787" y="1007.4877929688" type="line"/>
			<point x="874.8016782014" y="942.4877929688" type="line"/>
			<point x="750.5826840608" y="402" type="line"/>
			<point x="712.9794736116" y="195" type="line"/>
			<point x="709.0870175569" y="124"/>
			<point x="717.2192807405" y="35"/>
			<point x="742.8805966584" y="-8" type="qcurve"/>
			<point x="580.5970883577" y="-13" type="line"/>
			<point x="584.8240781037" y="12.3967895508"/>
			<point x="557.2945981233" y="137.0068969727"/>
			<point x="547.82261326" y="218.8993530273" type="qcurve"/>
			<point x="430.6164365022" y="96.791809082"/>
			<point x="269.2696347444" y="-5"/>
			<point x="179.9353451936" y="-5" type="qcurve" smooth="yes"/>
			<point x="42.2306332795" y="-5"/>
			<point x="-47.2373232634" y="123"/>
		</contour>
		<contour>
			<point x="123.2385678498" y="270" type="qcurve" smooth="yes"/>
			<point x="125.3461117952" y="164"/>
			<point x="185.9766049592" y="127.2568359375"/>
			<point x="237.5749936311" y="127.2568359375" type="qcurve" smooth="yes"/>
			<point x="386.4822201936" y="127.2568359375"/>
			<point x="572.8591733186" y="311.4428710938"/>
			<point x="612.8301205842" y="504.2568359375" type="qcurve" smooth="yes"/>
			<point x="680.4172787873" y="816.0444335938" type="line"/>
			<point x="669.5989804475" y="842.0444335938"/>
			<point x="597.3505063264" y="885.0444335938"/>
			<point x="544.0031552522" y="885.0444335938" type="qcurve" smooth="yes"/>
			<point x="330.9684872834" y="885.0444335938"/>
			<point x="112.4944272248" y="489.4870605469"/>
		</contour>
	</outline>
	<anchor name="bottom" x="345" y="0"/>
	<anchor name="ogonek" x="732" y="0"/>
	<anchor name="top" x="608" y="1000"/>
</glyph>
<glyph name="b" format="2">
	<unicode hex="0062"/>
	<advance width="1011"/>
	<outline>
		<contour>
			<point x="52.6049194336" y="285" type="qcurve" smooth="yes"/>
			<point x="123.3869628906" y="594" type="line"/>
			<point x="281.2111206055" y="1416.0413818359" type="line"/>
			<point x="130.4273071289" y="1401.2541503906" type="line"/>
			<point x="158.0630493164" y="1476.8889160156" type="line"/>
			<point x="454.6802978516" y="1561.6761474609" type="line"/>
			<point x="486.4111938477" y="1529.8427124023" type="line"/>
			<point x="281.9000244141" y="585" type="line"/>
			<point x="195.117980957" y="152" type="line" smooth="yes"/>
			<point x="186.3615112305" y="110.3330078125"/>
			<point x="259.5820922852" y="98.5547485352"/>
			<point x="279.2648925781" y="98.5547485352" type="qcurve" smooth="yes"/>
			<point x="564.0833740234" y="98.5547485352"/>
			<point x="827.7769165039" y="467.7935180664"/>
			<point x="816.7682495117" y="672.7855834961" type="qcurve" smooth="yes"/>
			<point x="810.3961791992" y="754.0077514648"/>
			<point x="723.7509765625" y="854.2301025391"/>
			<point x="635.1057128906" y="854.2301025391" type="qcurve" smooth="yes"/>
			<point x="508.0362548828" y="854.2301025391"/>
			<point x="352.8521118164" y="789.1228027344"/>
			<point x="241.7760620117" y="675.028503418" type="qcurve"/>
			<point x="254.4169311523" y="796.0832519531" type="line"/>
			<point x="359.2671508789" y="905.8656005859"/>
			<point x="609.5618286133" y="1008.7849121094"/>
			<point x="751.5483398438" y="1008.7849121094" type="qcurve" smooth="yes"/>
			<point x="870.4945068359" y="1008.7849121094"/>
			<point x="1003.9071044922" y="875.7849121094"/>
			<point x="1013.0974731445" y="737.7849121094" type="qcurve" smooth="yes"/>
			<point x="1028.6351928711" y="426.4600830078"/>
			<point x="585.4567260742" y="-12"/>
			<point x="266.6688842773" y="-12" type="qcurve" smooth="yes"/>
			<point x="134.2058105469" y="-12"/>
			<point x="16.6049194336" y="129"/>
		</contour>
	</outline>
	<anchor name="bottom" x="571" y="0"/>
	<anchor name="top" x="571" y="1533"/>
</glyph>
<glyph name="c" format="2">
	<unicode hex="0063"/>
	<advance width="928"/>
	<outline>
		<contour>
			<point x="15.3244628906" y="500.4061279297" type="qcurve" smooth="yes"/>
			<point x="61.0812988281" y="732.4334716797"/>
			<point x="415.5284423828" y="1026.3122558594"/>
			<point x="626.1121826172" y="1026.3122558594" type="qcurve" smooth="yes"/>
			<point x="742.8561401367" y="1026.3122558594"/>
			<point x="872.6460571289" y="894.0346679688"/>
			<point x="867.6460571289" y="804.0348510742" type="qcurve" smooth="yes"/>
			<point x="863.6460571289" y="742.9238891602"/>
			<point x="790.3554077148" y="634.1463623047"/>
			<point x="736.5646972656" y="608.0352783203" type="qcurve"/>
			<point x="710.6928710938" y="621.0352783203" type="line"/>
			<point x="710.6928710938" y="871.0352783203" type="line" smooth="yes"/>
			<point x="710.6928710938" y="883.0352783203"/>
			<point x="651.2626953125" y="913.5352783203"/>
			<point x="590.3917236328" y="913.5352783203" type="qcurve" smooth="yes"/>
			<point x="436.2443237305" y="913.5352783203"/>
			<point x="229.0645141602" y="676.0675048828"/>
			<point x="196.8631591797" y="498.4061279297" type="qcurve" smooth="yes"/>
			<point x="163.8510131836" y="320.9009399414"/>
			<point x="264.2338867188" y="143.1658325195"/>
			<point x="413.2686157227" y="143.1658325195" type="qcurve" smooth="yes"/>
			<point x="548.2012329102" y="143.1658325195"/>
			<point x="722.5132446289" y="267.2216186523"/>
			<point x="783.0035400391" y="315.1108398438" type="qcurve"/>
			<point x="827.1848754883" y="259.2223510742" type="line"/>
			<point x="825.1848754883" y="217.6669921875" type="line"/>
			<point x="758.4764404297" y="160.5015869141"/>
			<point x="497.25390625" y="-15.5"/>
			<point x="329.8114624023" y="-15.5" type="qcurve" smooth="yes"/>
			<point x="157.2854003906" y="-15.5"/>
			<point x="-37.8377685547" y="227.1625976562"/>
		</contour>
	</outline>
	<anchor name="bottom" x="343" y="0"/>
	<anchor name="top" x="600" y="1000"/>
</glyph>
<glyph name="d" format="2">
	<unicode hex="0064"/>
	<advance width="1084"/>
	<outline>
		<contour>
			<point x="-54" y="274.9460449219" type="qcurve" smooth="yes"/>
			<point x="-42" y="556.4870605469"/>
			<point x="470.5094604492" y="992.7634887695"/>
			<point x="783.8126831055" y="995.7039794922" type="qcurve" smooth="yes"/>
			<point x="809.634765625" y="995.7039794922" type="line"/>
			<point x="886.9338378906" y="1403.9519042969" type="line"/>
			<point x="713.2257080078" y="1396.4219970703" type="line"/>
			<point x="739.8614501953" y="1475.0567626953" type="line"/>
			<point x="1054.3322143555" y="1557.541015625" type="line"/>
			<point x="1084.2554321289" y="1547.541015625" type="line"/>
			<point x="871.0391235352" y="469" type="line"/>
			<point x="814.0842895508" y="157.7707519531" type="line"/>
			<point x="951.067199707" y="171.2550048828" type="line"/>
			<point x="948.067199707" y="77.4842529297" type="line"/>
			<point x="687.9748535156" y="-6" type="line"/>
			<point x="654.936340332" y="32.5129394531" type="line"/>
			<point x="626.9705810547" y="170.0003662109" type="line"/>
			<point x="585.3438110352" y="122.1109619141"/>
			<point x="242.5491333008" y="-5"/>
			<point x="187.6358642578" y="-5" type="qcurve" smooth="yes"/>
			<point x="57.7324829102" y="-5"/>
			<point x="-61" y="128.5676269531"/>
		</contour>
		<contour>
			<point x="120.2694702148" y="295.9460449219" type="qcurve" smooth="yes"/>
			<point x="115.2694702148" y="204.3119506836"/>
			<point x="203.8912963867" y="128.5548706055"/>
			<point x="285.8771972656" y="128.5548706055" type="qcurve" smooth="yes"/>
			<point x="426.5214233398" y="128.5548706055"/>
			<point x="676.6926879883" y="343.5552368164"/>
			<point x="718.8934936523" y="530.6660766602" type="qcurve" smooth="yes"/>
			<point x="770.314453125" y="804.9271240234" type="line"/>
			<point x="759.7854003906" y="832.9271240234"/>
			<point x="694.6896972656" y="854.1493530273"/>
			<point x="653.7991943359" y="855.1493530273" type="qcurve" smooth="yes"/>
			<point x="410.0693359375" y="861.1493530273"/>
			<point x="132.2694702148" y="483.2651367188"/>
		</contour>
	</outline>
	<anchor name="bottom" x="604" y="0"/>
	<anchor name="center" x="876" y="1202"/>
	<anchor name="top" x="704" y="1534"/>
	<anchor name="topright" x="1076" y="1000"/>
	<anchor name="liga" x="1067" y="0"/>
</glyph>
<glyph name="e" format="2">
	<unicode hex="0065"/>
	<advance width="1001"/>
	<outline>
		<contour>
			<point x="-24.8840340392" y="413.6762695312" type="qcurve" smooth="yes"/>
			<point x="14.1964102967" y="653.2730102539"/>
			<point x="394.776610492" y="1026.5960693359"/>
			<point x="589.2108756287" y="1026.5960693359" type="qcurve" smooth="yes"/>
			<point x="735.2552481873" y="1026.5960693359"/>
			<point x="872.4364615662" y="895.0639038086"/>
			<point x="863.8849478944" y="796.3457641602" type="qcurve" smooth="yes"/>
			<point x="857.778563617" y="782.6284790039"/>
			<point x="855.1763907655" y="775.4602050781"/>
			<point x="853.907469867" y="761.3944091797" type="qcurve"/>
			<point x="895.6052237733" y="746.5106201172" type="line"/>
			<point x="861.5583487733" y="634.8118896484" type="line"/>
			<point x="825.9786978944" y="635.055480957"/>
			<point x="701.4432983398" y="636.1011352539"/>
			<point x="644.1542960389" y="636.8118896484" type="qcurve" smooth="yes"/>
			<point x="158.3696899414" y="636.8118896484" type="line"/>
			<point x="199.7396231873" y="730.3832397461" type="line"/>
			<point x="671.1708976014" y="750.8826904297" type="line"/>
			<point x="685.8805533631" y="768.2142333984"/>
			<point x="707.6040641053" y="796.0621337891"/>
			<point x="704.7857657655" y="814.6162109375" type="qcurve" smooth="yes"/>
			<point x="701.5459586366" y="858.3068847656"/>
			<point x="655.5338736756" y="909.9202880859"/>
			<point x="587.8249503358" y="909.9202880859" type="qcurve" smooth="yes"/>
			<point x="460.6970816834" y="909.9202880859"/>
			<point x="219.2240592225" y="725.0550537109"/>
			<point x="172.8726187928" y="501.6762695312" type="qcurve" smooth="yes"/>
			<point x="140.6096183045" y="343.741027832"/>
			<point x="247.2638549805" y="177.2738037109"/>
			<point x="403.3025512695" y="164.4310913086" type="qcurve" smooth="yes"/>
			<point x="545.2867431641" y="151.6055908203"/>
			<point x="708.8817138672" y="220.5524291992"/>
			<point x="806.076965332" y="334.1690063477" type="qcurve"/>
			<point x="847.5466910584" y="273.1162109375" type="line"/>
			<point x="858.5324088319" y="234.3251953125" type="line"/>
			<point x="784.3811645508" y="156.8071899414"/>
			<point x="507.0982666016" y="-13.0408325195"/>
			<point x="314.4380484803" y="-5.2692260742" type="qcurve" smooth="yes"/>
			<point x="159.848815918" y="-1.8278198242"/>
			<point x="-53.3424690978" y="233.4313964844"/>
		</contour>
	</outline>
	<anchor name="bottom" x="339" y="0"/>
	<anchor name="ogonek" x="495" y="0"/>
	<anchor name="top" x="601" y="1000"/>
</glyph>
<glyph name="f" format="2">
	<unicode hex="0066"/>
	<advance width="610"/>
	<outline>
		<contour>
			<point x="-445.4633178711" y="-333" type="line" smooth="yes"/>
			<point x="-422.2817382812" y="-177.2450561523" type="line"/>
			<point x="-271.5505371094" y="-172.2907104492" type="line" smooth="yes"/>
			<point x="-71.5505371094" y="-171.2212524414"/>
			<point x="109.7188720703" y="35.7707519531"/>
			<point x="176.7188720703" y="450.7707519531" type="qcurve" smooth="yes"/>
			<point x="250.4375610352" y="920.9686279297" type="line"/>
			<point x="254.3264160156" y="946.1906738281" type="line"/>
			<point x="279.6235351562" y="1084.0275878906" type="line" smooth="yes"/>
			<point x="323.3532714844" y="1312.1627197266"/>
			<point x="528.6658325195" y="1527.0275878906"/>
			<point x="678.7328491211" y="1527.0275878906" type="qcurve" smooth="yes"/>
			<point x="770.3094482422" y="1527.0275878906"/>
			<point x="890.5050048828" y="1453.0275878906"/>
			<point x="888.5050048828" y="1384.0275878906" type="qcurve" smooth="yes"/>
			<point x="886.5050048828" y="1325.0275878906"/>
			<point x="793.5050048828" y="1263.0275878906"/>
			<point x="752.5050048828" y="1263.0275878906" type="qcurve" smooth="yes"/>
			<point x="750.4786376953" y="1291.0275878906"/>
			<point x="759.5050048828" y="1373.0275878906"/>
			<point x="759.5050048828" y="1405.0275878906" type="qcurve" smooth="yes"/>
			<point x="759.5050048828" y="1373.5837402344"/>
			<point x="719.0670776367" y="1400.1395263672"/>
			<point x="681.4169311523" y="1400.1395263672" type="qcurve" smooth="yes"/>
			<point x="601.8373413086" y="1400.1395263672"/>
			<point x="472.3410644531" y="1222.4161376953"/>
			<point x="430.8833618164" y="965.3617553711" type="qcurve" smooth="yes"/>
			<point x="426.9163818359" y="949.1906738281" type="line"/>
			<point x="424.0232543945" y="928.1907958984" type="line"/>
			<point x="379.1728515625" y="653" type="line" smooth="yes"/>
			<point x="288.6038818359" y="96"/>
			<point x="-68.2504272461" y="-390"/>
			<point x="-276.6864624023" y="-390" type="qcurve"/>
		</contour>
		<contour>
			<point x="69.5191650391" y="869.9688720703" type="line"/>
			<point x="64.8525390625" y="952.8572998047" type="line"/>
			<point x="269.1041870117" y="960.8572998047" type="line"/>
			<point x="634.7912597656" y="970.8572998047" type="line"/>
			<point x="624.1246337891" y="888.9688720703" type="line"/>
			<point x="334.3906860352" y="871.9688720703" type="line"/>
			<point x="274.9033813477" y="864.9688720703" type="line"/>
		</contour>
	</outline>
	<anchor name="bottom" x="217" y="0"/>
	<anchor name="top" x="554" y="1536"/>
</glyph>
<glyph name="g" format="2">
	<unicode hex="0067"/>
	<advance width="1025"/>
	<outline>
		<contour>
			<point x="-62" y="266" type="qcurve" smooth="yes"/>
			<point x="-85.3807373047" y="543.9194335938"/>
			<point x="400.1401367188" y="1018.3255615234"/>
			<point x="641.9313964844" y="1018.3255615234" type="qcurve" smooth="yes"/>
			<point x="695.7850341797" y="1018.3255615234"/>
			<point x="791.166809082" y="979.3255615234"/>
			<point x="812.9641723633" y="943.3255615234" type="qcurve"/>
			<point x="892.7590942383" y="1015.3255615234" type="line"/>
			<point x="925.2335205078" y="1014.3255615234" type="line"/>
			<point x="967.1091308594" y="903.3255615234" type="line"/>
			<point x="892.8386230469" y="572" type="line" smooth="yes"/>
			<point x="848.4332275391" y="379.4053955078"/>
			<point x="808.0493774414" y="218.5"/>
			<point x="751.3386230469" y="21.5" type="qcurve" smooth="yes"/>
			<point x="701.0284423828" y="-144.5"/>
			<point x="281.7919921875" y="-400.5"/>
			<point x="150.24609375" y="-400.5" type="qcurve"/>
			<point x="-13.4238891602" y="-340.5" type="line"/>
			<point x="5.6770629883" y="-215.4110717773" type="line"/>
			<point x="134.1984863281" y="-198.4115600586" type="line" smooth="yes"/>
			<point x="336.9417114258" y="-182.8571777344"/>
			<point x="617.0481567383" y="-8.2741699219"/>
			<point x="672.4580688477" y="257.7258300781" type="qcurve" smooth="yes"/>
			<point x="659.2150268555" y="197.2665405273" type="line"/>
			<point x="573.057800293" y="157.9241333008"/>
			<point x="305.3516235352" y="-5"/>
			<point x="174.0261230469" y="-5" type="qcurve" smooth="yes"/>
			<point x="41.7591552734" y="-5"/>
			<point x="-53.7849121094" y="163"/>
		</contour>
		<contour>
			<point x="118.0258789062" y="285" type="qcurve" smooth="yes"/>
			<point x="122.9764404297" y="239.6662597656"/>
			<point x="204.1864624023" y="142.3325805664"/>
			<point x="289.5043945312" y="142.3325805664" type="qcurve" smooth="yes"/>
			<point x="406.4907836914" y="142.3325805664"/>
			<point x="656.7713012695" y="263.1108398438"/>
			<point x="690.2613525391" y="415.2217407227" type="qcurve" smooth="yes"/>
			<point x="786.3098754883" y="829.4373779297" type="line"/>
			<point x="771.9765625" y="858.1923217773"/>
			<point x="666.7475585938" y="878.4375610352"/>
			<point x="602.471496582" y="878.4375610352" type="qcurve" smooth="yes"/>
			<point x="391.4145507812" y="878.4375610352"/>
			<point x="99.4634399414" y="493.9586181641"/>
		</contour>
	</outline>
	<anchor name="bottom" x="324" y="-416"/>
	<anchor name="top" x="603" y="1000"/>
</glyph>
<glyph name="h" format="2">
	<unicode hex="0068"/>
	<advance width="1124"/>
	<outline>
		<contour>
			<point x="21.0135498047" y="-11.3590087891" type="line"/>
			<point x="11.5776367188" y="40.9358520508" type="line"/>
			<point x="137.5007324219" y="584.1409301758" type="line"/>
			<point x="288.6136474609" y="1411.0932617188" type="line"/>
			<point x="83.048034668" y="1402.6389160156" type="line"/>
			<point x="112.6837768555" y="1481.2736816406" type="line"/>
			<point x="452.0120239258" y="1569.167175293" type="line"/>
			<point x="478.2431030273" y="1537.3337402344" type="line"/>
			<point x="320.7189331055" y="696.2435913086" type="line"/>
			<point x="195.180480957" y="84.2435913086" type="line"/>
			<point x="192.9368896484" y="19" type="line"/>
		</contour>
		<contour>
			<point x="706.9450073242" y="-6.4871826172" type="line"/>
			<point x="647.9321289062" y="101.7308959961" type="line"/>
			<point x="802.2448730469" y="831.8649902344" type="line" smooth="yes"/>
			<point x="796.7795410156" y="799.9135742188"/>
			<point x="715.1092529297" y="850.4450683594"/>
			<point x="648.6680908203" y="850.4450683594" type="qcurve" smooth="yes"/>
			<point x="558.0999145508" y="850.4450683594"/>
			<point x="370.5575561523" y="727.109375"/>
			<point x="289.0670776367" y="676.3054199219" type="qcurve"/>
			<point x="296.5313110352" y="810.1906738281" type="line"/>
			<point x="402.7532958984" y="899.9700927734"/>
			<point x="661.7177734375" y="1020.1906738281"/>
			<point x="749.9776000977" y="1020.1906738281" type="qcurve" smooth="yes"/>
			<point x="835.1988525391" y="1020.1906738281"/>
			<point x="982.6034545898" y="874.6637573242"/>
			<point x="961.873046875" y="770.1906738281" type="qcurve" smooth="yes"/>
			<point x="823.4820556641" y="145.998046875" type="line"/>
			<point x="982.1759033203" y="179.6942138672" type="line"/>
			<point x="982.1759033203" y="91.6961669922" type="line"/>
		</contour>
	</outline>
	<anchor name="bottom" x="420" y="0"/>
	<anchor name="center" x="347" y="1202"/>
	<anchor name="top" x="424" y="1534"/>
</glyph>
<glyph name="k" format="2">
	<unicode hex="006B"/>
	<advance width="973"/>
	<outline>
		<contour>
			<point x="411.6309814453" y="406.7282714844" type="line"/>
			<point x="155.4163818359" y="160.7084350586" type="line"/>
			<point x="171.1867675781" y="264.5097045898" type="line"/>
			<point x="682.1591796875" y="762.2064208984" type="line"/>
			<point x="731.9658813477" y="792.9791259766"/>
			<point x="662.8790283203" y="877.7283935547"/>
			<point x="580.915222168" y="877.7283935547" type="qcurve" smooth="yes"/>
			<point x="504.630859375" y="877.7283935547"/>
			<point x="332.9282836914" y="705.4768066406"/>
			<point x="314.0109863281" y="678.1468505859" type="qcurve"/>
			<point x="300.0407104492" y="599.0767211914" type="line"/>
			<point x="211.1548461914" y="104.0641479492" type="line"/>
			<point x="220.4753417969" y="31.3333740234" type="line"/>
			<point x="22.2827758789" y="-9" type="line"/>
			<point x="20.2827758789" y="60" type="line"/>
			<point x="137.2827758789" y="585" type="line"/>
			<point x="286.9085083008" y="1408.4064941406" type="line"/>
			<point x="80.9271850586" y="1402.2705078125" type="line"/>
			<point x="109.5629272461" y="1480.9052734375" type="line"/>
			<point x="451.063293457" y="1565.7077026367" type="line"/>
			<point x="476.0377807617" y="1533.6306762695" type="line"/>
			<point x="335.1073608398" y="809.696105957" type="line"/>
			<point x="389.3366088867" y="892.7665405273"/>
			<point x="592.7893676758" y="1028.2176513672"/>
			<point x="683.1424560547" y="1028.2176513672" type="qcurve" smooth="yes"/>
			<point x="768.9055175781" y="1028.2176513672"/>
			<point x="866.393371582" y="906.2164306641"/>
			<point x="876.6237182617" y="867.6231689453" type="qcurve" smooth="yes"/>
			<point x="891.1370849609" y="765.3616333008" type="line"/>
			<point x="882.8103027344" y="746.6174926758" type="line"/>
			<point x="444.8405151367" y="427.3735351562" type="line"/>
		</contour>
		<contour>
			<point x="530.6371459961" y="544.6869506836" type="line"/>
			<point x="788.8221435547" y="166.219909668" type="line"/>
			<point x="958.3640136719" y="185.6130981445" type="line"/>
			<point x="955.3640136719" y="97.6150512695" type="line"/>
			<point x="716.099609375" y="-5.0311279297" type="line" smooth="yes"/>
			<point x="698.0386352539" y="-16.7716064453"/>
			<point x="709.3071899414" y="-11.5512084961"/>
			<point x="654.5697021484" y="24" type="qcurve" smooth="yes"/>
			<point x="414.2308349609" y="464.9966430664" type="line"/>
		</contour>
	</outline>
	<anchor name="bottom" x="448" y="0"/>
	<anchor name="top" x="578" y="1534"/>
</glyph>
<glyph name="l" format="2">
	<unicode hex="006C"/>
	<advance width="526"/>
	<outline>
		<contour>
			<point x="68.2365722656" y="-9" type="line"/>
			<point x="31.2493286133" y="41.1411743164" type="line"/>
			<point x="154.5441894531" y="604" type="line"/>
			<point x="302.951965332" y="1409.1791992188" type="line"/>
			<point x="110.7587280273" y="1402.4219970703" type="line"/>
			<point x="140.3944702148" y="1481.0567626953" type="line"/>
			<point x="470.3503417969" y="1568.6820678711" type="line"/>
			<point x="493.3248291016" y="1535.8486328125" type="line"/>
			<point x="312.0572509766" y="588" type="line"/>
			<point x="228.4205322266" y="154.998046875" type="line"/>
			<point x="405.7491455078" y="178.0278320312" type="line"/>
			<point x="405.7491455078" y="96.1199951172" type="line"/>
		</contour>
	</outline>
	<anchor name="bottom" x="201" y="0"/>
	<anchor name="center" x="236" y="770"/>
	<anchor name="top" x="436" y="1534"/>
	<anchor name="topright" x="492" y="1000"/>
	<anchor name="centerright" x="707" y="742"/>
	<anchor name="liga" x="567" y="0"/>
</glyph>
<glyph name="m" format="2">
	<unicode hex="006D"/>
	<advance width="1677"/>
	<outline>
		<contour>
			<point x="32.9233398438" y="-11.3333740234" type="line"/>
			<point x="24.4874267578" y="40.205078125" type="line"/>
			<point x="127.4361572266" y="489" type="line"/>
			<point x="192.5623779297" y="840.8328857422" type="line"/>
			<point x="67.8839111328" y="858.3494873047" type="line"/>
			<point x="69.4293212891" y="953.3018798828" type="line"/>
			<point x="339.4489746094" y="1011.7852783203" type="line"/>
			<point x="360.9746704102" y="997.7852783203" type="line"/>
			<point x="325.5878295898" y="674.0726318359" type="line"/>
			<point x="313.9235839844" y="632" type="line"/>
			<point x="205.9235839844" y="84" type="line"/>
			<point x="203.9235839844" y="19" type="line"/>
		</contour>
		<contour>
			<point x="636.6262207031" y="-6.7564086914" type="line"/>
			<point x="624.6262207031" y="58.2435913086" type="line"/>
			<point x="778.6455078125" y="832.7467041016" type="line" smooth="yes"/>
			<point x="772.7564697266" y="802.1397094727"/>
			<point x="752.321105957" y="857.4698486328"/>
			<point x="661.4978027344" y="857.4698486328" type="qcurve" smooth="yes"/>
			<point x="575.3812866211" y="857.4698486328"/>
			<point x="363.1965942383" y="725.3377075195"/>
			<point x="264.6547851562" y="603.9468994141" type="qcurve"/>
			<point x="276.7016601562" y="739.0181884766" type="line"/>
			<point x="348.9666748047" y="860.2487182617"/>
			<point x="648.3442382812" y="1031.2852783203"/>
			<point x="749.3939819336" y="1031.2852783203" type="qcurve" smooth="yes"/>
			<point x="853.3081054688" y="1031.2852783203"/>
			<point x="979.794921875" y="883.9628295898"/>
			<point x="944.3828125" y="782.5288696289" type="qcurve" smooth="yes"/>
			<point x="793.0880126953" y="86.1539306641" type="line"/>
			<point x="801.9598388672" y="24.3077392578" type="line"/>
		</contour>
		<contour>
			<point x="1258.4429931641" y="-7.1666870117" type="line"/>
			<point x="1201.4301147461" y="96.0513916016" type="line"/>
			<point x="1363.5582275391" y="839.9712524414" type="line" smooth="yes"/>
			<point x="1356.2076416016" y="803.3576660156"/>
			<point x="1324.7797241211" y="861.5396728516"/>
			<point x="1253.4790039062" y="861.5396728516" type="qcurve" smooth="yes"/>
			<point x="1166.51171875" y="861.5396728516"/>
			<point x="962.2592773438" y="704.0677490234"/>
			<point x="884.3800048828" y="586.1564331055" type="qcurve"/>
			<point x="891.1390991211" y="724.2852783203" type="line"/>
			<point x="931.0178222656" y="822.3846435547"/>
			<point x="1240.0521240234" y="1031.2852783203"/>
			<point x="1331.2752075195" y="1031.2852783203" type="qcurve" smooth="yes"/>
			<point x="1427.201965332" y="1031.2852783203"/>
			<point x="1550.6012573242" y="883.3708496094"/>
			<point x="1527.0200195312" y="812.2852783203" type="qcurve" smooth="yes"/>
			<point x="1380.694519043" y="145.998046875" type="line"/>
			<point x="1538.1610717773" y="180.4516601562" type="line"/>
			<point x="1538.1610717773" y="92.4536132812" type="line"/>
		</contour>
	</outline>
	<anchor name="bottom" x="958" y="0"/>
	<anchor name="top" x="958" y="1000"/>
	<anchor name="cy_descender" x="1572" y="134"/>
</glyph>
<glyph name="n" format="2">
	<unicode hex="006E"/>
	<advance width="1115"/>
	<outline>
		<contour>
			<point x="42.5661621094" y="-18.5659179688" type="line"/>
			<point x="21.4870605469" y="36.4340820312" type="line"/>
			<point x="125.0002441406" y="490" type="line"/>
			<point x="191.5623779297" y="840.23828125" type="line"/>
			<point x="67.8839111328" y="857.7548828125" type="line"/>
			<point x="69.4293212891" y="952.7072753906" type="line"/>
			<point x="333.8207397461" y="1005.9077148438" type="line"/>
			<point x="357.5387573242" y="991.9077148438" type="line"/>
			<point x="323.3063964844" y="682.8742675781" type="line"/>
			<point x="338.2440185547" y="721.1906738281" type="line"/>
			<point x="199.4873046875" y="71.4340820312" type="line"/>
			<point x="214.56640625" y="5.4340820312" type="line"/>
		</contour>
		<contour>
			<point x="733.0886230469" y="-6" type="line"/>
			<point x="665.3812255859" y="82" type="line"/>
			<point x="798.6528930664" y="743.399597168" type="line" smooth="yes"/>
			<point x="805.8667602539" y="785.3765258789"/>
			<point x="775.6630859375" y="868.3751831055"/>
			<point x="688.9821166992" y="868.3751831055" type="qcurve" smooth="yes"/>
			<point x="597.9365844727" y="868.3751831055"/>
			<point x="368.3857421875" y="736.1448974609"/>
			<point x="279.9047241211" y="609.1990966797" type="qcurve"/>
			<point x="281.7586669922" y="731.8862915039" type="line"/>
			<point x="377.1027832031" y="903.8239135742"/>
			<point x="680.0034179688" y="1030.6906738281"/>
			<point x="789.307800293" y="1030.6906738281" type="qcurve" smooth="yes"/>
			<point x="898.478515625" y="1030.6906738281"/>
			<point x="999.1107177734" y="878.8051147461"/>
			<point x="979.2265625" y="781.6906738281" type="qcurve" smooth="yes"/>
			<point x="846.2994995117" y="145.998046875" type="line"/>
			<point x="1005.0352783203" y="179.6942138672" type="line"/>
			<point x="1005.0352783203" y="91.6961669922" type="line"/>
		</contour>
	</outline>
	<anchor name="bottom" x="522" y="0"/>
	<anchor name="top" x="602" y="1000"/>
	<anchor name="liga" x="1173" y="0"/>
</glyph>
<glyph name="o" format="2">
	<unicode hex="006F"/>
	<advance width="978"/>
	<outline>
		<contour>
			<point x="13.5297912118" y="549.0007324219" type="qcurve" smooth="yes"/>
			<point x="55.8604375186" y="732.6065063477"/>
			<point x="374.9197636905" y="1047.9476928711"/>
			<point x="588.5027104678" y="1030.526184082" type="qcurve" smooth="yes"/>
			<point x="786.98403371" y="1013.6423339844"/>
			<point x="994.4257451358" y="727.2690429688"/>
			<point x="951.6364196297" y="508.5545043945" type="qcurve" smooth="yes"/>
			<point x="913.2791997256" y="296.0648803711"/>
			<point x="582.6165410342" y="-37.2107543945"/>
			<point x="375.3576299014" y="-16.5" type="qcurve" smooth="yes"/>
			<point x="181.4296513858" y="2.9623413086"/>
			<point x="-45.7989252744" y="282.7571411133"/>
		</contour>
		<contour>
			<point x="204.6170714852" y="564.0712890625" type="qcurve" smooth="yes"/>
			<point x="155.1620140856" y="382.1476748847"/>
			<point x="241.2415221688" y="95.7904052734"/>
			<point x="378.3419250008" y="87.3882446289" type="qcurve" smooth="yes"/>
			<point x="519.6932653427" y="82.6961802144"/>
			<point x="737.4414417379" y="353.9988235368"/>
			<point x="768.4652160165" y="518.8895874023" type="qcurve" smooth="yes"/>
			<point x="796.8408022562" y="654.4732191561"/>
			<point x="704.4894439632" y="904.3118615292"/>
			<point x="577.3087218758" y="917.4422607422" type="qcurve" smooth="yes"/>
			<point x="436.8554137704" y="933.1842651367"/>
			<point x="240.5047160995" y="694.6441181601"/>
		</contour>
	</outline>
	<anchor name="bottom" x="358" y="0"/>
	<anchor name="center" x="461" y="500"/>
	<anchor name="ogonek" x="514" y="0"/>
	<anchor name="top" x="584" y="1000"/>
	<anchor name="topright" x="663" y="1000"/>
	<anchor name="GRKtop" x="584" y="1000"/>
	<anchor name="yu_dash" x="83" y="498"/>
</glyph>
<glyph name="p" format="2">
	<unicode hex="0070"/>
	<advance width="922"/>
	<outline>
		<contour>
			<point x="-61.5482177734" y="-392.5" type="line"/>
			<point x="129.9133300781" y="511" type="line"/>
			<point x="181.0728759766" y="875.9324951172" type="line"/>
			<point x="178.5856933594" y="939.2529907227" type="line"/>
			<point x="342.8935546875" y="1021.1633300781" type="line"/>
			<point x="362.367980957" y="1007.1633300781" type="line"/>
			<point x="346.2416381836" y="850.9313964844" type="line"/>
			<point x="397.6386108398" y="897.2331542969"/>
			<point x="666.227722168" y="1018.6633300781"/>
			<point x="748.1773681641" y="1018.6633300781" type="qcurve" smooth="yes"/>
			<point x="862.7097167969" y="1018.6633300781"/>
			<point x="918.5028076172" y="865.4885864258"/>
			<point x="926.0071411133" y="822.5744018555" type="qcurve" smooth="yes"/>
			<point x="941.4125976562" y="457.4870605469"/>
			<point x="560.0446777344" y="30"/>
			<point x="313.9638061523" y="30" type="qcurve" smooth="yes"/>
			<point x="276.5917358398" y="30"/>
			<point x="223.9057006836" y="45"/>
			<point x="197.7981567383" y="59" type="qcurve"/>
			<point x="119.901550293" y="-326.399230957" type="line"/>
			<point x="266.7007446289" y="-322.3240356445" type="line"/>
			<point x="243.0650024414" y="-394.9588012695" type="line"/>
			<point x="-28.8173217773" y="-433.3334350586" type="line"/>
		</contour>
		<contour>
			<point x="221.5526733398" y="182.2208251953" type="line"/>
			<point x="240.3666381836" y="168.8154296875"/>
			<point x="296.80859375" y="154.8154296875"/>
			<point x="336.7097167969" y="153.8154296875" type="qcurve" smooth="yes"/>
			<point x="548.5379638672" y="150.8154296875"/>
			<point x="756.4170532227" y="517.4331054688"/>
			<point x="734.5900878906" y="720.4334716797" type="qcurve" smooth="yes"/>
			<point x="731.9287719727" y="839.4064941406"/>
			<point x="695.9891357422" y="854.9875488281"/>
			<point x="639.6951904297" y="854.9875488281" type="qcurve" smooth="yes"/>
			<point x="558.7586669922" y="852.9875488281"/>
			<point x="420.0247802734" y="800.6276855469"/>
			<point x="334.0785522461" y="734.9997558594" type="qcurve"/>
			<point x="298.7981567383" y="553" type="line"/>
		</contour>
	</outline>
	<anchor name="bottom" x="599" y="0"/>
	<anchor name="top" x="599" y="1000"/>
</glyph>
<glyph name="q" format="2">
	<unicode hex="0071"/>
	<advance width="968"/>
	<outline>
		<contour>
			<point x="-60.5" y="263" type="qcurve" smooth="yes"/>
			<point x="-45.5" y="565.2708740234"/>
			<point x="361.1114489623" y="1020.2985839844"/>
			<point x="616.2073962279" y="1020.2985839844" type="qcurve" smooth="yes"/>
			<point x="670.2321154662" y="1020.2985839844"/>
			<point x="730.5460803099" y="975.2985839844"/>
			<point x="748.4138171263" y="942.2985839844" type="qcurve"/>
			<point x="818.3258654662" y="1003.2985839844" type="line"/>
			<point x="846.9028307982" y="1003.2985839844" type="line"/>
			<point x="876.2490832396" y="840.4393920898" type="line"/>
			<point x="794.4481188842" y="468" type="line"/>
			<point x="645.3568102904" y="-297.7744140625" type="line"/>
			<point x="781.837889392" y="-297.9265136719" type="line"/>
			<point x="755.2021472045" y="-381.5612792969" type="line"/>
			<point x="504.2941882201" y="-403.8590087891" type="line"/>
			<point x="468.5761096068" y="-364.0255737305" type="line"/>
			<point x="589.5889269896" y="207" type="line"/>
			<point x="586.5889269896" y="207" type="line"/>
			<point x="469.275389392" y="102"/>
			<point x="268.7193603516" y="15"/>
			<point x="183.6324462891" y="15" type="qcurve" smooth="yes"/>
			<point x="63.5852661133" y="15"/>
			<point x="-66.5" y="154"/>
		</contour>
		<contour>
			<point x="112.7438354492" y="265" type="qcurve" smooth="yes"/>
			<point x="107.7438354492" y="220.6284179688"/>
			<point x="163.1172473021" y="160.7221679688"/>
			<point x="248.5140368529" y="160.7221679688" type="qcurve" smooth="yes"/>
			<point x="378.7958972045" y="160.7221679688"/>
			<point x="612.1141955443" y="304.6982421875"/>
			<point x="637.6401965209" y="458" type="qcurve" smooth="yes"/>
			<point x="712.9701525756" y="807.7390136719" type="line"/>
			<point x="701.2841174193" y="839.7390136719"/>
			<point x="616.2754504271" y="880.7390136719"/>
			<point x="558.9033801146" y="880.7390136719" type="qcurve" smooth="yes"/>
			<point x="364.4858996459" y="880.7390136719"/>
			<point x="124.7438354492" y="470.1307373047"/>
		</contour>
	</outline>
	<anchor name="bottom" x="594" y="0"/>
	<anchor name="top" x="594" y="1000"/>
</glyph>
<glyph name="r" format="2">
	<unicode hex="0072"/>
	<advance width="766"/>
	<outline>
		<contour>
			<point x="34.3263549805" y="-5" type="line"/>
			<point x="28.3263549805" y="48" type="line"/>
			<point x="133.9545898438" y="500" type="line"/>
			<point x="187.8884887695" y="839.0601806641" type="line"/>
			<point x="60.4525756836" y="857.5920410156" type="line"/>
			<point x="61.9979858398" y="953.5444335938" type="line"/>
			<point x="355.4161987305" y="1012.7852783203" type="line"/>
			<point x="370.4161987305" y="999.7852783203" type="line"/>
			<point x="331.0958251953" y="807.229309082" type="line"/>
			<point x="352.0060424805" y="754.7852783203" type="line"/>
			<point x="220.8984985352" y="149.9072265625" type="line"/>
			<point x="234.6076049805" y="99.2703857422" type="line"/>
			<point x="228.6076049805" y="22.2723388672" type="line"/>
		</contour>
		<contour>
			<point x="644.979309082" y="761.7913818359" type="line"/>
			<point x="655.4236450195" y="911.9528198242" type="line"/>
			<point x="554.8441162109" y="915.9528198242"/>
			<point x="412.633972168" y="892.5628662109"/>
			<point x="320.1982421875" y="715.7852783203" type="qcurve"/>
			<point x="316.3391723633" y="804.895690918" type="line"/>
			<point x="295.5064086914" y="832.6530151367"/>
			<point x="560.6934204102" y="1042.2852783203"/>
			<point x="654.0653686523" y="1042.2852783203" type="qcurve" smooth="yes"/>
			<point x="728.8216552734" y="1042.2852783203"/>
			<point x="783.6288452148" y="970.0160522461"/>
			<point x="783.6288452148" y="927.2852783203" type="qcurve" smooth="yes"/>
			<point x="783.6288452148" y="868.343490231"/>
			<point x="718.8707733154" y="766.7913818359"/>
			<point x="655.5347290039" y="750.9022216797" type="qcurve" smooth="yes"/>
		</contour>
	</outline>
	<anchor name="bottom" x="282" y="0"/>
	<anchor name="top" x="486" y="1000"/>
</glyph>
<glyph name="s" format="2">
	<unicode hex="0073"/>
	<advance width="725"/>
	<outline>
		<contour>
			<point x="-38.108581543" y="152" type="qcurve" smooth="yes"/>
			<point x="-36.108581543" y="204"/>
			<point x="36.3400878906" y="258"/>
			<point x="92.2377929688" y="258" type="qcurve" smooth="yes"/>
			<point x="105.1096191406" y="258" type="line"/>
			<point x="101.1096191406" y="172" type="line" smooth="yes"/>
			<point x="97.1096191406" y="125.5551757812"/>
			<point x="206.1396484375" y="81.9437255859"/>
			<point x="266.6290893555" y="81.9437255859" type="qcurve" smooth="yes"/>
			<point x="361.9904174805" y="81.9437255859"/>
			<point x="493.9362792969" y="184.4155273438"/>
			<point x="497.9362792969" y="230.2103271484" type="qcurve" smooth="yes"/>
			<point x="500.9362792969" y="296.7703857422"/>
			<point x="403.2259521484" y="366.885559082"/>
			<point x="308.7429199219" y="444.8493041992" type="qcurve" smooth="yes"/>
			<point x="193.6029663086" y="543.7135620117"/>
			<point x="106.0487670898" y="682.2910766602"/>
			<point x="109.2923583984" y="763.5076904297" type="qcurve" smooth="yes"/>
			<point x="114.535949707" y="865.6141967773"/>
			<point x="323.2292480469" y="1029.1906738281"/>
			<point x="451.3737182617" y="1029.1906738281" type="qcurve" smooth="yes"/>
			<point x="574.0040893555" y="1029.1906738281"/>
			<point x="692.5748901367" y="939.1906738281"/>
			<point x="690.5748901367" y="889.1906738281" type="qcurve" smooth="yes"/>
			<point x="688.5748901367" y="842.1906738281"/>
			<point x="628.3440551758" y="791.1906738281"/>
			<point x="577.6516723633" y="791.1906738281" type="qcurve" smooth="yes"/>
			<point x="558.0490722656" y="791.1906738281" type="line"/>
			<point x="554.9849243164" y="894.3060913086" type="line" smooth="yes"/>
			<point x="556.9849243164" y="853.8264160156"/>
			<point x="465.4266967773" y="918.0802612305"/>
			<point x="399.2406005859" y="918.0802612305" type="qcurve" smooth="yes"/>
			<point x="332.3520507812" y="918.0802612305"/>
			<point x="247.9379882812" y="839.2661132812"/>
			<point x="247.9379882812" y="800.7203979492" type="qcurve" smooth="yes"/>
			<point x="247.9379882812" y="766.7199707031"/>
			<point x="334.9468383789" y="700.4619140625"/>
			<point x="429.04296875" y="622.3590087891" type="qcurve" smooth="yes"/>
			<point x="522.8903198242" y="547.8643188477"/>
			<point x="640.0385742188" y="430.2784423828"/>
			<point x="640.0385742188" y="332.8111572266" type="qcurve"/>
			<point x="642.7095947266" y="163.0617675781"/>
			<point x="411.826171875" y="-16.5"/>
			<point x="225.7713012695" y="-16.5" type="qcurve" smooth="yes"/>
			<point x="116.1229858398" y="-16.5"/>
			<point x="-42.108581543" y="78"/>
		</contour>
	</outline>
	<anchor name="bottom" x="282" y="0"/>
	<anchor name="top" x="446" y="1000"/>
</glyph>
<glyph name="t" format="2">
	<unicode hex="0074"/>
	<advance width="528"/>
	<outline>
		<contour>
			<point x="104.0705566406" y="-6" type="line"/>
			<point x="40.3396606445" y="46" type="line"/>
			<point x="115.3396606445" y="503" type="line"/>
			<point x="190.4977416992" y="904.9087524414" type="line"/>
			<point x="51.7413330078" y="899.8574829102" type="line"/>
			<point x="54.0745849609" y="973.7459716797" type="line"/>
			<point x="213.8991699219" y="992.0668945312"/>
			<point x="328.1449584961" y="1228.5873413086"/>
			<point x="346.8792724609" y="1295.1906738281" type="qcurve"/>
			<point x="407.1859130859" y="1304.1906738281" type="line"/>
			<point x="427.0321044922" y="1291.6393432617" type="line"/>
			<point x="296.5349121094" y="486" type="line"/>
			<point x="224.0133056641" y="151.0437011719" type="line"/>
			<point x="431.8380126953" y="195.5270996094" type="line"/>
			<point x="431.8380126953" y="114.4833984375" type="line"/>
		</contour>
		<contour>
			<point x="272.88671875" y="915.4129638672" type="line"/>
			<point x="296.775390625" y="1000.5236206055" type="line"/>
			<point x="585.7933349609" y="1029.8567504883" type="line"/>
			<point x="575.2377929688" y="925.4129638672" type="line"/>
		</contour>
	</outline>
	<anchor name="bottom" x="149" y="0"/>
	<anchor name="center" x="262" y="622"/>
	<anchor name="top" x="322" y="1179"/>
	<anchor name="topright" x="600" y="920"/>
</glyph>
<glyph name="v" format="2">
	<unicode hex="0076"/>
	<advance width="955"/>
	<outline>
		<contour>
			<point x="277.1177368164" y="0" type="line"/>
			<point x="212.8229980469" y="511.2907104492" type="line"/>
			<point x="163.1544799805" y="860.2756347656" type="line"/>
			<point x="31.4158325195" y="851.4890136719" type="line"/>
			<point x="29.9612426758" y="946.44140625" type="line"/>
			<point x="283.7919921875" y="1013.1906738281" type="line"/>
			<point x="312.4074707031" y="998.1906738281" type="line"/>
			<point x="354.1649169922" y="589.9835205078" type="line"/>
			<point x="393.4452514648" y="241.4324951172" type="line"/>
			<point x="401.1602783203" y="161.4859008789" type="line"/>
			<point x="402.1602783203" y="161.4859008789" type="line"/>
			<point x="472.8269042969" y="238.860534668" type="line"/>
			<point x="708.403137207" y="527.5097045898"/>
			<point x="724.446105957" y="684.6116943359"/>
			<point x="728.446105957" y="759.3876953125" type="qcurve" smooth="yes"/>
			<point x="730.446105957" y="863.1299438477"/>
			<point x="682.3151855469" y="975.6940307617"/>
			<point x="614.3151855469" y="1006.767578125" type="qcurve" smooth="yes"/>
			<point x="624.3151855469" y="1010.1625976562"/>
			<point x="691.6639404297" y="1045.0136108398"/>
			<point x="728.4318237305" y="1045.0136108398" type="qcurve" smooth="yes"/>
			<point x="786.1234130859" y="1045.0136108398"/>
			<point x="900.7938232422" y="966.2116699219"/>
			<point x="900.7938232422" y="857.6505126953" type="qcurve" smooth="yes"/>
			<point x="900.7938232422" y="726.4098510742"/>
			<point x="646.5236816406" y="257.6117553711"/>
			<point x="348.5489501953" y="-17" type="qcurve"/>
		</contour>
	</outline>
	<anchor name="bottom" x="513" y="0"/>
	<anchor name="top" x="513" y="1000"/>
</glyph>
<glyph name="w" format="2">
	<unicode hex="0077"/>
	<advance width="1451"/>
	<outline>
		<contour>
			<point x="184.0056152344" y="10" type="line"/>
			<point x="114.7387084961" y="542.741027832" type="line"/>
			<point x="78.7384033203" y="867.23828125" type="line"/>
			<point x="-51.7730712891" y="850.8153076172" type="line"/>
			<point x="-53.2276611328" y="947.7677001953" type="line"/>
			<point x="196.7981567383" y="1013.1906738281" type="line"/>
			<point x="227.7955932617" y="998.1906738281" type="line"/>
			<point x="257.1619873047" y="617.4984130859" type="line"/>
			<point x="296.8685913086" y="164.7034912109" type="line"/>
			<point x="297.9517822266" y="114.9478759766" type="line"/>
			<point x="298.9517822266" y="114.9478759766" type="line"/>
			<point x="329.6878662109" y="163.4998779297" type="line"/>
			<point x="444.8842163086" y="322.1804199219"/>
			<point x="596.3881225586" y="558.0610351562"/>
			<point x="642.0760498047" y="639.2163085938" type="qcurve"/>
			<point x="626.5630493164" y="877.4655761719" type="line"/>
			<point x="552.2961425781" y="867.9463500977" type="line"/>
			<point x="549.5503540039" y="965.4340820312" type="line"/>
			<point x="718.4223022461" y="1008.1906738281" type="line"/>
			<point x="746.4453735352" y="994.1906738281" type="line"/>
			<point x="810.6351318359" y="610.1906738281" type="line"/>
			<point x="863.5708007812" y="173.8119506836" type="line"/>
			<point x="879.6273803711" y="131.142578125" type="line"/>
			<point x="880.6273803711" y="131.142578125" type="line"/>
			<point x="942.6920776367" y="167.1226806641" type="line"/>
			<point x="1134.5065917969" y="380.8533935547"/>
			<point x="1293.2677001953" y="704.1676025391"/>
			<point x="1291.3958740234" y="810.0823974609" type="qcurve" smooth="yes"/>
			<point x="1289.5240478516" y="877.2446289062"/>
			<point x="1205.2793579102" y="949.1392822266"/>
			<point x="1136.792175293" y="983.7033691406" type="qcurve" smooth="yes"/>
			<point x="1153.3049926758" y="996.7931518555"/>
			<point x="1213.946105957" y="1021.1906738281"/>
			<point x="1246.6641235352" y="1021.1906738281" type="qcurve" smooth="yes"/>
			<point x="1320.0962524414" y="946.0648803711"/>
			<point x="1402.2934570312" y="941.8829345703"/>
			<point x="1398.2934570312" y="875.6008300781" type="qcurve" smooth="yes"/>
			<point x="1393.2934570312" y="757.7309570312"/>
			<point x="1122.5267944336" y="245.0348510742"/>
			<point x="833.1224975586" y="-5" type="qcurve"/>
			<point x="739.4880981445" y="13" type="line"/>
			<point x="678.6268920898" y="500.6020507812" type="line"/>
			<point x="674.6791381836" y="540.9033813477" type="line"/>
			<point x="673.6791381836" y="540.9033813477" type="line"/>
			<point x="658.8594970703" y="490.8258056641" type="line"/>
			<point x="607.3291625977" y="409.68359375"/>
			<point x="443.4361572266" y="183.1422119141"/>
			<point x="281.9058227539" y="-8" type="qcurve"/>
		</contour>
	</outline>
	<anchor name="bottom" x="787" y="0"/>
	<anchor name="top" x="717" y="1000"/>
</glyph>
<glyph name="x" format="2">
	<unicode hex="0078"/>
	<advance width="1059"/>
	<outline>
		<contour>
			<point x="-11.5148925781" y="18" type="qcurve"/>
			<point x="-89.4548339844" y="32.3029785156" type="line"/>
			<point x="-72.4096679688" y="117.7099609375" type="line"/>
			<point x="64.8469238281" y="119.4069824219" type="line" smooth="yes"/>
			<point x="95.2716064453" y="121.9069824219"/>
			<point x="155.6270751953" y="155.5238647461"/>
			<point x="153.5452880859" y="122.9458618164" type="qcurve" smooth="yes"/>
			<point x="176.3018798828" y="113.9699707031"/>
			<point x="335.282409668" y="305.5834350586"/>
			<point x="442.7313842773" y="475.9006958008" type="qcurve"/>
			<point x="284.0648193359" y="878.3291015625" type="line"/>
			<point x="138.3726806641" y="866.1489257812" type="line"/>
			<point x="136.9180908203" y="969.1013183594" type="line"/>
			<point x="398.311706543" y="1023.1906738281" type="line"/>
			<point x="419.1451416016" y="1018.1906738281" type="line"/>
			<point x="505.8856811523" y="731.592590332" type="line"/>
			<point x="527.5627441406" y="672.2338256836" type="line"/>
			<point x="528.5627441406" y="672.2338256836" type="line"/>
			<point x="574.0941772461" y="728.3920898438" type="line" smooth="yes"/>
			<point x="629.563659668" y="822.7852172852"/>
			<point x="696.7538452148" y="927.1217041016"/>
			<point x="725.8098754883" y="955.8657226562" type="qcurve" smooth="yes"/>
			<point x="750.3815307617" y="972.5324707031"/>
			<point x="853.4821166992" y="1031.1906738281"/>
			<point x="894.4290161133" y="1031.1906738281" type="qcurve" smooth="yes"/>
			<point x="943.4082641602" y="1031.1906738281"/>
			<point x="969.9881591797" y="977.6875610352"/>
			<point x="969.9881591797" y="945.6875610352" type="qcurve" smooth="yes"/>
			<point x="969.9881591797" y="910.6875610352"/>
			<point x="915.4912719727" y="839.1906738281"/>
			<point x="886.4912719727" y="832.1906738281" type="qcurve"/>
			<point x="873.4912719727" y="845.1906738281" type="line"/>
			<point x="873.9357299805" y="928.8636474609" type="line" smooth="yes"/>
			<point x="870.8246459961" y="908.5306396484"/>
			<point x="860.9808349609" y="914.5244750977"/>
			<point x="860.9207763672" y="914.5244750977" type="qcurve" smooth="yes"/>
			<point x="839.6174316406" y="914.5244750977"/>
			<point x="800.8512573242" y="895.5026245117"/>
			<point x="743.8077392578" y="819.8609619141" type="qcurve" smooth="yes"/>
			<point x="706.0975341797" y="776.3241577148"/>
			<point x="675.9296875" y="754.4916381836"/>
			<point x="570.5926513672" y="571.1325073242" type="qcurve"/>
			<point x="751.1130981445" y="130.498046875" type="line"/>
			<point x="910.8361206055" y="161.2546386719" type="line"/>
			<point x="907.8361206055" y="73.2565917969" type="line"/>
			<point x="647.6412963867" y="-15.5" type="line"/>
			<point x="612.0001831055" y="9.5" type="line"/>
			<point x="502.2416992188" y="339.2202758789" type="line"/>
			<point x="474.6784667969" y="406.6493530273" type="line"/>
			<point x="473.6784667969" y="406.6493530273" type="line"/>
			<point x="423.6563720703" y="342.0856933594" type="line"/>
			<point x="388.9099121094" y="276.2445678711"/>
			<point x="241.9151611328" y="49.4224243164"/>
			<point x="215.7079467773" y="53.6320800781" type="qcurve" smooth="yes"/>
			<point x="169.7355957031" y="40.6820068359"/>
			<point x="43.4849243164" y="-20.333190918"/>
		</contour>
	</outline>
	<anchor name="bottom" x="522" y="0"/>
	<anchor name="top" x="522" y="1000"/>
	<anchor name="cy_descender" x="832" y="134"/>
	<anchor name="center" x="432" y="502"/>
</glyph>
<glyph name="y" format="2">
	<unicode hex="0079"/>
	<advance width="1034"/>
	<outline>
		<contour>
			<point x="-396.9796142578" y="-339.5" type="line"/>
			<point x="-393.9796142578" y="-324.5" type="line"/>
			<point x="-237.76171875" y="-319.5" type="line" smooth="yes"/>
			<point x="-117.5874023438" y="-314.5"/>
			<point x="128.3617553711" y="-243.7780761719"/>
			<point x="244.9227294922" y="-100" type="qcurve" smooth="yes"/>
			<point x="325.5486450195" y="7" type="line"/>
			<point x="303.9309082031" y="31" type="line"/>
			<point x="311.2027587891" y="39.2427978516"/>
			<point x="202.151550293" y="748.23828125"/>
			<point x="168.9268798828" y="868.23828125" type="qcurve"/>
			<point x="26.5520019531" y="856.3608398438" type="line"/>
			<point x="25.0974121094" y="958.3132324219" type="line"/>
			<point x="254.0854492188" y="1015.1906738281" type="line"/>
			<point x="288.2448730469" y="1015.1906738281" type="line"/>
			<point x="322.8226928711" y="949.1906738281" type="line"/>
			<point x="440.3746337891" y="176.3826293945" type="line"/>
			<point x="450.7476196289" y="120.6580810547" type="line"/>
			<point x="451.7476196289" y="120.6580810547" type="line"/>
			<point x="504.1429443359" y="171.477355957" type="line" smooth="yes"/>
			<point x="664.5653076172" y="388.4567871094"/>
			<point x="825.782409668" y="621.2708740234"/>
			<point x="825.782409668" y="754.0823974609" type="qcurve" smooth="yes"/>
			<point x="825.782409668" y="843.0823974609"/>
			<point x="791.2741699219" y="951.0823974609"/>
			<point x="713.2741699219" y="1006.0823974609" type="qcurve" smooth="yes"/>
			<point x="733.2741699219" y="1017.0823974609"/>
			<point x="783.9024047852" y="1031.0823974609"/>
			<point x="816.0947265625" y="1031.0823974609" type="qcurve" smooth="yes"/>
			<point x="863.9665527344" y="1031.0823974609"/>
			<point x="952.9666748047" y="963.0823974609"/>
			<point x="952.9666748047" y="875.0823974609" type="qcurve" smooth="yes"/>
			<point x="952.9666748047" y="725.0823974609"/>
			<point x="652.8959350586" y="186.7091674805"/>
			<point x="411.336730957" y="-72.3331298828" type="qcurve" smooth="yes"/>
			<point x="348.8662109375" y="-145.3331298828" type="line" smooth="yes"/>
			<point x="183.7059326172" y="-335.7048950195"/>
			<point x="-118.1403198242" y="-394.5"/>
			<point x="-203.76171875" y="-400.5" type="qcurve"/>
		</contour>
	</outline>
	<anchor name="bottom" x="782" y="0"/>
	<anchor name="top" x="504" y="1000"/>
</glyph>
<glyph name="z" format="2">
	<unicode hex="007A"/>
	<advance width="822"/>
	<outline>
		<contour>
			<point x="-29.8334960938" y="0.0000610352" type="line"/>
			<point x="-96.4996948242" y="77.9995727539" type="line"/>
			<point x="-17.9019775391" y="128.8884277344"/>
			<point x="279.1481933594" y="454.8623046875"/>
			<point x="399.1708374023" y="599.4299316406" type="qcurve" smooth="yes"/>
			<point x="474.6986694336" y="691.4299316406"/>
			<point x="616.2927246094" y="836.1165771484"/>
			<point x="646.7249145508" y="849.305847168" type="qcurve"/>
			<point x="238.4349365234" y="846.3314819336" type="line"/>
			<point x="202.8802490234" y="752.1940917969" type="line"/>
			<point x="93.2647705078" y="753.1940917969" type="line"/>
			<point x="150.4862060547" y="998.1906738281" type="line"/>
			<point x="171.4862060547" y="1018.1906738281" type="line"/>
			<point x="851.4835205078" y="1003.1906738281" type="line"/>
			<point x="860.1501464844" y="945.0798339844" type="line"/>
			<point x="818.7222900391" y="901.0798339844"/>
			<point x="612.4995727539" y="668.08203125"/>
			<point x="524.167175293" y="553.4874267578" type="qcurve" smooth="yes"/>
			<point x="437.7702636719" y="442.9197998047"/>
			<point x="245.1176757812" y="237.6490478516"/>
			<point x="199.6128540039" y="216.2045898438" type="qcurve"/>
			<point x="595.7465209961" y="157.4603271484" type="line"/>
			<point x="649.0913085938" y="270.3624267578" type="line"/>
			<point x="738.6078491211" y="247.7294311523" type="line"/>
			<point x="641.9423217773" y="0" type="line"/>
			<point x="611.9423217773" y="-19" type="line"/>
			<point x="116.2970581055" y="86.7778320312" type="line"/>
		</contour>
	</outline>
	<anchor name="bottom" x="443" y="0"/>
	<anchor name="top" x="463" y="1000"/>
	<anchor name="_liga" x="0" y="0"/>
</glyph>
